<svg width="242pt" height="260pt" viewBox="0 0 242 260" xmlns="http://www.w3.org/2000/svg"><g id="graph0" class="graph" transform="scale(1 1) rotate(0) translate(4 256)"><g id="node1" class="node"><title>internet</title><path fill="none" stroke="var(--fg)" d="M42-144s-30 0-30 0c-6 0-12 6-12 12v12c0 6 6 12 12 12H42c6 0 12-6 12-12v-12c0-6-6-12-12-12"/><text text-anchor="middle" x="27" y="-123.8" font-family="Roboto" font-size="9">internet</text></g><g id="node2" class="node"><title>PNG</title><path fill="none" stroke="var(--fg)" d="M132-252s-30 0-30 0c-6 0-12 6-12 12v12c0 6 6 12 12 12h30c6 0 12-6 12-12v-12c0-6-6-12-12-12"/><text text-anchor="middle" x="117" y="-231.8" font-family="Roboto" font-size="9">PNG</text></g><g id="edge1" class="edge"><title>internet->PNG</title><path fill="none" stroke="var(--fg)" d="M42.07-144.38C60.36-168.28 90-207 90-207S90.54-207.56 91.45-208.51"/><polygon fill="var(--fg)" stroke="var(--fg)" points="89.06,-211.07 98.51,-215.84 94.1,-206.21 89.06,-211.07"/></g><g id="node3" class="node"><title>JPEG</title><path fill="none" stroke="var(--fg)" d="M132-198s-30 0-30 0c-6 0-12 6-12 12v12c0 6 6 12 12 12h30c6 0 12-6 12-12v-12c0-6-6-12-12-12"/><text text-anchor="middle" x="117" y="-177.8" font-family="Roboto" font-size="9">JPEG</text></g><g id="edge2" class="edge"><title>internet->JPEG</title><path fill="none" stroke="var(--fg)" d="M54.4-142.2C62.83-147.37 72.29-153.18 81.22-158.66"/><polygon fill="var(--fg)" stroke="var(--fg)" points="79.57,-161.75 89.92,-164 83.23,-155.78 79.57,-161.75"/></g><g id="node4" class="node"><title>GIF</title><path fill="none" stroke="var(--fg)" d="M132-144s-30 0-30 0c-6 0-12 6-12 12v12c0 6 6 12 12 12h30c6 0 12-6 12-12v-12c0-6-6-12-12-12"/><text text-anchor="middle" x="117" y="-123.8" font-family="Roboto" font-size="9">GIF</text></g><g id="edge3" class="edge"><title>internet->GIF</title><path fill="none" stroke="var(--fg)" d="M54.4-126c7.99.0 16.91.0 25.42.0"/><polygon fill="var(--fg)" stroke="var(--fg)" points="79.92,-129.5 89.92,-126 79.92,-122.5 79.92,-129.5"/></g><g id="node5" class="node"><title>TIFF</title><path fill="none" stroke="var(--fg)" d="M132-90s-30 0-30 0c-6 0-12 6-12 12v12c0 6 6 12 12 12h30c6 0 12-6 12-12V-78c0-6-6-12-12-12"/><text text-anchor="middle" x="117" y="-69.8" font-family="Roboto" font-size="9">TIFF</text></g><g id="edge4" class="edge"><title>internet->TIFF</title><path fill="none" stroke="var(--fg)" d="M54.4-109.8c8.43 5.17 17.89 10.98 26.82 16.46"/><polygon fill="var(--fg)" stroke="var(--fg)" points="83.23,-96.22 89.92,-88 79.57,-90.25 83.23,-96.22"/></g><g id="node6" class="node"><title>...</title><path fill="none" stroke="var(--fg)" d="M132-36s-30 0-30 0c-6 0-12 6-12 12v12c0 6 6 12 12 12h30c6 0 12-6 12-12V-24c0-6-6-12-12-12"/><text text-anchor="middle" x="117" y="-15.8" font-family="Roboto" font-size="9">...</text></g><g id="edge5" class="edge"><title>internet->...</title><path fill="none" stroke="var(--fg)" d="M42.07-107.62C60.36-83.72 90-45 90-45S90.54-44.44 91.45-43.49"/><polygon fill="var(--fg)" stroke="var(--fg)" points="94.1,-45.79 98.51,-36.16 89.06,-40.93 94.1,-45.79"/></g><g id="node7" class="node"><title>SkBitmap</title><path fill="none" stroke="var(--fg)" d="M222-144s-30 0-30 0c-6 0-12 6-12 12v12c0 6 6 12 12 12h30c6 0 12-6 12-12v-12c0-6-6-12-12-12"/><text text-anchor="middle" x="207" y="-123.8" font-family="Roboto" font-size="9">SkBitmap</text></g><g id="edge6" class="edge"><title>PNG->SkBitmap</title><path fill="none" stroke="var(--fg)" d="M135.49-215.84C140.19-210.96 144-207 144-207s23.72 30.98 41.81 54.63"/><polygon fill="var(--fg)" stroke="var(--fg)" points="188.63,-154.45 191.93,-144.38 183.07,-150.19 188.63,-154.45"/></g><g id="edge7" class="edge"><title>JPEG->SkBitmap</title><path fill="none" stroke="var(--fg)" d="M144.4-163.8C152.83-158.63 162.29-152.82 171.22-147.34"/><polygon fill="var(--fg)" stroke="var(--fg)" points="173.23,-150.22 179.92,-142 169.57,-144.25 173.23,-150.22"/></g><g id="edge8" class="edge"><title>GIF->SkBitmap</title><path fill="none" stroke="var(--fg)" d="M144.4-126C152.39-126 161.31-126 169.82-126"/><polygon fill="var(--fg)" stroke="var(--fg)" points="169.92,-129.5 179.92,-126 169.92,-122.5 169.92,-129.5"/></g><g id="edge9" class="edge"><title>TIFF->SkBitmap</title><path fill="none" stroke="var(--fg)" d="M144.4-88.2C152.83-93.37 162.29-99.18 171.22-104.66"/><polygon fill="var(--fg)" stroke="var(--fg)" points="169.57,-107.75 179.92,-110 173.23,-101.78 169.57,-107.75"/></g><g id="edge10" class="edge"><title>...->SkBitmap</title><path fill="none" stroke="var(--fg)" d="M135.49-36.16C140.19-41.04 144-45 144-45s23.72-30.98 41.81-54.63"/><polygon fill="var(--fg)" stroke="var(--fg)" points="183.07,-101.81 191.93,-107.62 188.63,-97.55 183.07,-101.81"/></g></g></svg>