<svg width="259pt" height="44pt" viewBox="0 0 259 44" xmlns="http://www.w3.org/2000/svg"><g id="graph0" class="graph" transform="scale(1 1) rotate(0) translate(4 40)"><g id="node1" class="node"><title>attacker</title><path fill="none" stroke="var(--fg)" d="M42-36s-30 0-30 0C6-36 0-30 0-24v12C0-6 6 0 12 0H42c6 0 12-6 12-12V-24c0-6-6-12-12-12"/><text text-anchor="middle" x="27" y="-15.8" font-family="Roboto" font-size="9">attacker</text></g><g id="node2" class="node"><title>radio</title><path fill="none" stroke="var(--fg)" d="M134-36s-32 0-32 0c-6 0-12 6-12 12v12c0 6 6 12 12 12h32c6 0 12-6 12-12V-24c0-6-6-12-12-12"/><text text-anchor="middle" x="118" y="-15.8" font-family="Roboto" font-size="9">radio chip</text></g><g id="edge1" class="edge"><title>attacker->radio</title><path fill="none" stroke="var(--fg)" d="M54.22-18c7.95.0 16.84.0 25.37.0"/><polygon fill="var(--fg)" stroke="var(--fg)" points="79.73,-21.5 89.73,-18 79.73,-14.5 79.73,-21.5"/></g><g id="node3" class="node"><title>kernel</title><path fill="none" stroke="var(--fg)" d="M239-36s-45 0-45 0c-6 0-12 6-12 12v12c0 6 6 12 12 12h45c6 0 12-6 12-12V-24c0-6-6-12-12-12"/><text text-anchor="middle" x="216.5" y="-15.8" font-family="Roboto" font-size="9">device driver</text></g><g id="edge2" class="edge"><title>radio->kernel</title><path fill="none" stroke="var(--fg)" d="M146.14-18C154.07-18 162.95-18 171.64-18"/><polygon fill="var(--fg)" stroke="var(--fg)" points="171.69,-21.5 181.69,-18 171.69,-14.5 171.69,-21.5"/></g></g></svg>