<svg width="300pt" height="46pt" viewBox="0 0 300 46" xmlns="http://www.w3.org/2000/svg"><g id="graph0" class="graph" transform="scale(1 1) rotate(0) translate(4 42)"><g id="node1" class="node"><title>attacker</title><path fill="none" stroke="var(--fg)" d="M42-36s-30 0-30 0C6-36 0-30 0-24v12C0-6 6 0 12 0H42c6 0 12-6 12-12V-24c0-6-6-12-12-12"/><text text-anchor="middle" x="27" y="-15.8" font-family="Roboto" font-size="9">attacker</text></g><g id="node2" class="node"><title>radio</title><path fill="none" stroke="var(--fg)" d="M140-36s-32 0-32 0c-6 0-12 6-12 12v12c0 6 6 12 12 12h32c6 0 12-6 12-12V-24c0-6-6-12-12-12"/><text text-anchor="middle" x="124" y="-15.8" font-family="Roboto" font-size="9">radio chip</text></g><g id="edge1" class="edge"><title>attacker->radio</title><path fill="none" stroke="var(--fg)" d="M54.21-18c9.72.0 20.94.0 31.46.0"/><polygon fill="var(--fg)" stroke="var(--fg)" points="85.88,-21.5 95.88,-18 85.88,-14.5 85.88,-21.5"/><text text-anchor="middle" x="75" y="-20.8" font-family="Roboto" font-size="9">0</text></g><g id="node3" class="node"><title>kernel</title><path fill="none" stroke="var(--fg)" d="M280-36s-45 0-45 0c-6 0-12 6-12 12v12c0 6 6 12 12 12h45c6 0 12-6 12-12V-24c0-6-6-12-12-12"/><text text-anchor="middle" x="257.5" y="-15.8" font-family="Roboto" font-size="9">device driver</text></g><g id="edge2" class="edge"><title>radio->kernel</title><path fill="none" stroke="var(--fg)" d="M152.25-18c17.42.0 40.42.0 60.38.0"/><polygon fill="var(--fg)" stroke="var(--fg)" points="212.74,-21.5 222.74,-18 212.74,-14.5 212.74,-21.5"/><text text-anchor="middle" x="187.5" y="-30.8" font-family="Roboto" font-size="9">low or</text><text text-anchor="middle" x="187.5" y="-20.8" font-family="Roboto" font-size="9">medium</text></g></g></svg>