<?xml version="1.0" encoding="UTF-8" standalone="no"?>
<!DOCTYPE svg PUBLIC "-//W3C//DTD SVG 1.1//EN"
 "http://www.w3.org/Graphics/SVG/1.1/DTD/svg11.dtd">
<!-- Generated by graphviz version 2.42.4 (0)
 -->
<!-- Pages: 1 -->
<svg width="425pt" height="44pt"
 viewBox="0.00 0.00 425.00 44.00" xmlns="http://www.w3.org/2000/svg" xmlns:xlink="http://www.w3.org/1999/xlink">
<g id="graph0" class="graph" transform="scale(1 1) rotate(0) translate(4 40)">
<polygon fill="white" stroke="transparent" points="-4,4 -4,-40 421,-40 421,4 -4,4"/>
<!-- attacker -->
<g id="node1" class="node">
<title>attacker</title>
<path fill="none" stroke="var(--fg)" d="M42,-36C42,-36 12,-36 12,-36 6,-36 0,-30 0,-24 0,-24 0,-12 0,-12 0,-6 6,0 12,0 12,0 42,0 42,0 48,0 54,-6 54,-12 54,-12 54,-24 54,-24 54,-30 48,-36 42,-36"/>
<text text-anchor="middle" x="27" y="-15.8" font-family="Roboto" font-size="9.00">attacker</text>
</g>
<!-- stuff -->
<g id="node2" class="node">
<title>stuff</title>
<path fill="none" stroke="var(--fg)" d="M132,-36C132,-36 102,-36 102,-36 96,-36 90,-30 90,-24 90,-24 90,-12 90,-12 90,-6 96,0 102,0 102,0 132,0 132,0 138,0 144,-6 144,-12 144,-12 144,-24 144,-24 144,-30 138,-36 132,-36"/>
<text text-anchor="middle" x="117" y="-15.8" font-family="Roboto" font-size="9.00">...</text>
</g>
<!-- attacker&#45;&gt;stuff -->
<g id="edge1" class="edge">
<title>attacker&#45;&gt;stuff</title>
<path fill="none" stroke="var(--fg)" d="M54.4,-18C62.39,-18 71.31,-18 79.82,-18"/>
<polygon fill="var(--fg)" stroke="var(--fg)" points="79.92,-21.5 89.92,-18 79.92,-14.5 79.92,-21.5"/>
</g>
<!-- HTTP -->
<g id="node3" class="node">
<title>HTTP</title>
<path fill="none" stroke="var(--fg)" d="M222,-36C222,-36 192,-36 192,-36 186,-36 180,-30 180,-24 180,-24 180,-12 180,-12 180,-6 186,0 192,0 192,0 222,0 222,0 228,0 234,-6 234,-12 234,-12 234,-24 234,-24 234,-30 228,-36 222,-36"/>
<text text-anchor="middle" x="207" y="-15.8" font-family="Roboto" font-size="9.00">HTTP</text>
</g>
<!-- stuff&#45;&gt;HTTP -->
<g id="edge2" class="edge">
<title>stuff&#45;&gt;HTTP</title>
<path fill="none" stroke="var(--fg)" d="M144.4,-18C152.39,-18 161.31,-18 169.82,-18"/>
<polygon fill="var(--fg)" stroke="var(--fg)" points="169.92,-21.5 179.92,-18 169.92,-14.5 169.92,-21.5"/>
</g>
<!-- parse_CSP -->
<g id="node4" class="node">
<title>parse_CSP</title>
<path fill="none" stroke="var(--fg)" d="M315,-36C315,-36 282,-36 282,-36 276,-36 270,-30 270,-24 270,-24 270,-12 270,-12 270,-6 276,0 282,0 282,0 315,0 315,0 321,0 327,-6 327,-12 327,-12 327,-24 327,-24 327,-30 321,-36 315,-36"/>
<text text-anchor="middle" x="298.5" y="-15.8" font-family="Roboto" font-size="9.00">parse CSP</text>
</g>
<!-- HTTP&#45;&gt;parse_CSP -->
<g id="edge3" class="edge">
<title>HTTP&#45;&gt;parse_CSP</title>
<path fill="none" stroke="var(--fg)" d="M234.37,-18C242.29,-18 251.13,-18 259.64,-18"/>
<polygon fill="var(--fg)" stroke="var(--fg)" points="259.76,-21.5 269.76,-18 259.76,-14.5 259.76,-21.5"/>
</g>
<!-- eval_CSP -->
<g id="node5" class="node">
<title>eval_CSP</title>
<path fill="none" stroke="var(--fg)" d="M405,-36C405,-36 375,-36 375,-36 369,-36 363,-30 363,-24 363,-24 363,-12 363,-12 363,-6 369,0 375,0 375,0 405,0 405,0 411,0 417,-6 417,-12 417,-12 417,-24 417,-24 417,-30 411,-36 405,-36"/>
<text text-anchor="middle" x="390" y="-15.8" font-family="Roboto" font-size="9.00">eval CSP</text>
</g>
<!-- parse_CSP&#45;&gt;eval_CSP -->
<g id="edge4" class="edge">
<title>parse_CSP&#45;&gt;eval_CSP</title>
<path fill="none" stroke="var(--fg)" d="M327.33,-18C335.35,-18 344.23,-18 352.69,-18"/>
<polygon fill="var(--fg)" stroke="var(--fg)" points="352.72,-21.5 362.72,-18 352.72,-14.5 352.72,-21.5"/>
</g>
</g>
</svg>
