<svg width="536pt" height="46pt" viewBox="0 0 536 46" xmlns="http://www.w3.org/2000/svg"><g id="graph0" class="graph" transform="scale(1 1) rotate(0) translate(4 42)"><g id="node1" class="node"><title>attacker</title><path fill="none" stroke="var(--fg)" d="M42-36s-30 0-30 0C6-36 0-30 0-24v12C0-6 6 0 12 0H42c6 0 12-6 12-12V-24c0-6-6-12-12-12"/><text text-anchor="middle" x="27" y="-15.8" font-family="Roboto" font-size="9">attacker</text></g><g id="node2" class="node"><title>NIC</title><path fill="none" stroke="var(--fg)" d="M184-36s-44 0-44 0c-6 0-12 6-12 12v12c0 6 6 12 12 12h44c6 0 12-6 12-12V-24c0-6-6-12-12-12"/><text text-anchor="middle" x="162" y="-15.8" font-family="Roboto" font-size="9">net interface</text></g><g id="edge1" class="edge"><title>attacker->NIC</title><path fill="none" stroke="var(--fg)" d="M54.28-18c18 0 42.3.0 63.17.0"/><polygon fill="var(--fg)" stroke="var(--fg)" points="117.69,-21.5 127.69,-18 117.69,-14.5 117.69,-21.5"/><text text-anchor="middle" x="91" y="-30.8" font-family="Roboto" font-size="9">0, low, or</text><text text-anchor="middle" x="91" y="-20.8" font-family="Roboto" font-size="9">medium</text></g><g id="node3" class="node"><title>kernel</title><path fill="none" stroke="var(--fg)" d="M295-36s-45 0-45 0c-6 0-12 6-12 12v12c0 6 6 12 12 12h45c6 0 12-6 12-12V-24c0-6-6-12-12-12"/><text text-anchor="middle" x="272.5" y="-15.8" font-family="Roboto" font-size="9">device driver</text></g><g id="edge2" class="edge"><title>NIC->kernel</title><path fill="none" stroke="var(--fg)" d="M196.14-18C206.05-18 217.07-18 227.56-18"/><polygon fill="var(--fg)" stroke="var(--fg)" points="227.81,-21.5 237.81,-18 227.81,-14.5 227.81,-21.5"/><text text-anchor="middle" x="217" y="-20.8" font-family="Roboto" font-size="9">0</text></g><g id="node4" class="node"><title>TCP</title><path fill="none" stroke="var(--fg)" d="M391-36s-30 0-30 0c-6 0-12 6-12 12v12c0 6 6 12 12 12h30c6 0 12-6 12-12V-24c0-6-6-12-12-12"/><text text-anchor="middle" x="376" y="-15.8" font-family="Roboto" font-size="9">TCP</text></g><g id="edge3" class="edge"><title>kernel->TCP</title><path fill="none" stroke="var(--fg)" d="M307.02-18c10.22.0 21.5.0 31.88.0"/><polygon fill="var(--fg)" stroke="var(--fg)" points="338.91,-21.5 348.91,-18 338.91,-14.5 338.91,-21.5"/><text text-anchor="middle" x="328" y="-20.8" font-family="Roboto" font-size="9">0</text></g><g id="node5" class="node"><title>TLS</title><path fill="none" stroke="var(--fg)" d="M516-36s-30 0-30 0c-6 0-12 6-12 12v12c0 6 6 12 12 12h30c6 0 12-6 12-12V-24c0-6-6-12-12-12"/><text text-anchor="middle" x="501" y="-15.8" font-family="Roboto" font-size="9">TLS</text></g><g id="edge4" class="edge"><title>TCP->TLS</title><path fill="none" stroke="var(--fg)" d="M403.09-18c17.69.0 41.31.0 60.81.0"/><polygon fill="var(--fg)" stroke="var(--fg)" points="463.95,-21.5 473.95,-18 463.95,-14.5 463.95,-21.5"/><text text-anchor="middle" x="438.5" y="-30.8" font-family="Roboto" font-size="9">low or</text><text text-anchor="middle" x="438.5" y="-20.8" font-family="Roboto" font-size="9">medium</text></g></g></svg>