<svg width="425pt" height="44pt" viewBox="0 0 425 44" xmlns="http://www.w3.org/2000/svg" xmlns:xlink="http://www.w3.org/1999/xlink"><g id="graph0" class="graph" transform="scale(1 1) rotate(0) translate(4 40)"><g id="node1" class="node"><title>attacker</title><path fill="none" stroke="var(--fg)" d="M42-36s-30 0-30 0C6-36 0-30 0-24v12C0-6 6 0 12 0H42c6 0 12-6 12-12V-24c0-6-6-12-12-12"/><text text-anchor="middle" x="27" y="-15.8" font-family="Roboto" font-size="9">attacker</text></g><g id="node2" class="node"><title>stuff</title><path fill="none" stroke="var(--fg)" d="M132-36s-30 0-30 0c-6 0-12 6-12 12v12c0 6 6 12 12 12h30c6 0 12-6 12-12V-24c0-6-6-12-12-12"/><text text-anchor="middle" x="117" y="-15.8" font-family="Roboto" font-size="9">...</text></g><g id="edge1" class="edge"><title>attacker->stuff</title><path fill="none" stroke="var(--fg)" d="M54.4-18c7.99.0 16.91.0 25.42.0"/><polygon fill="var(--fg)" stroke="var(--fg)" points="79.92,-21.5 89.92,-18 79.92,-14.5 79.92,-21.5"/></g><g id="node3" class="node"><title>HTTP</title><path fill="none" stroke="var(--fg)" d="M222-36s-30 0-30 0c-6 0-12 6-12 12v12c0 6 6 12 12 12h30c6 0 12-6 12-12V-24c0-6-6-12-12-12"/><text text-anchor="middle" x="207" y="-15.8" font-family="Roboto" font-size="9">HTTP</text></g><g id="edge2" class="edge"><title>stuff->HTTP</title><path fill="none" stroke="var(--fg)" d="M144.4-18C152.39-18 161.31-18 169.82-18"/><polygon fill="var(--fg)" stroke="var(--fg)" points="169.92,-21.5 179.92,-18 169.92,-14.5 169.92,-21.5"/></g><g id="node4" class="node"><title>parse_CSP</title><path fill="none" stroke="var(--fg)" d="M315-36s-33 0-33 0c-6 0-12 6-12 12v12c0 6 6 12 12 12h33c6 0 12-6 12-12V-24c0-6-6-12-12-12"/><text text-anchor="middle" x="298.5" y="-15.8" font-family="Roboto" font-size="9">parse CSP</text></g><g id="edge3" class="edge"><title>HTTP->parse_CSP</title><path fill="none" stroke="var(--fg)" d="M234.37-18C242.29-18 251.13-18 259.64-18"/><polygon fill="var(--fg)" stroke="var(--fg)" points="259.76,-21.5 269.76,-18 259.76,-14.5 259.76,-21.5"/></g><g id="node5" class="node"><title>eval_CSP</title><path fill="none" stroke="var(--fg)" d="M405-36s-30 0-30 0c-6 0-12 6-12 12v12c0 6 6 12 12 12h30c6 0 12-6 12-12V-24c0-6-6-12-12-12"/><text text-anchor="middle" x="390" y="-15.8" font-family="Roboto" font-size="9">eval CSP</text></g><g id="edge4" class="edge"><title>parse_CSP->eval_CSP</title><path fill="none" stroke="var(--fg)" d="M327.33-18C335.35-18 344.23-18 352.69-18"/><polygon fill="var(--fg)" stroke="var(--fg)" points="352.72,-21.5 362.72,-18 352.72,-14.5 352.72,-21.5"/></g></g></svg>