<svg viewBox="0 0 518 298" fill="none" stroke="none" stroke-linecap="square" stroke-miterlimit="10" xmlns="http://www.w3.org/2000/svg"><clipPath id="p.0"><path d="m0 0h518v298H0V0z" clip-rule="nonzero"/></clipPath><g clip-path="url(#p.0)"><path fill="#000" fill-opacity="0" d="m0 0h518v298H0z" fill-rule="evenodd"/><path fill="#f4cccc" d="m62.23622 10.459317h131.93701v205.70079H62.23622z" fill-rule="evenodd"/><path stroke="#434343" stroke-width="2" stroke-linejoin="round" stroke-linecap="butt" d="m62.23622 10.459317h131.93701v205.70079H62.23622z" fill-rule="evenodd"/><path fill="#c9daf8" d="m81.24147 116.67191h90.55118v82.740166H81.24147z" fill-rule="evenodd"/><path stroke="#434343" stroke-width="2" stroke-linejoin="round" stroke-linecap="butt" d="m81.24147 116.67191h90.55118v82.740166H81.24147z" fill-rule="evenodd"/><path fill="#000" fill-opacity="0" d="m66.70604 134.78215h119.62204v58.173233H66.70604z" fill-rule="evenodd"/><path fill="#000" d="m90.89987 147.72028 3.609375 9.59375 3.609375-9.59375h2.078125v11.421875h-1.4375v-9.515625h-.03125l-3.5625 9.515625H93.86862l-3.578125-9.515625h-.03125v9.515625h-1.4375V147.72028h2.078125zm15.046875 2.953125q1.78125.0 2.765625 1.28125t.984375 3.296875v.15625h-6.203125v.109375q0 1.171875.6875 1.890625t1.890625.71875q.90625.0 1.4375-.421875.546875-.421875.703125-1.1875h1.34375q-.265625 1.375-1.203125 2.109375-.921875.71875-2.328125.71875-1.296875.0-2.203125-.59375t-1.34375-1.640625q-.421875-1.0625-.421875-2.15625.0-1.828125 1.09375-3.046875 1.109375-1.234375 2.796875-1.234375zm-2.453125 3.53125h4.75q-.0625-1-.734375-1.65625-.65625-.671875-1.65625-.671875-.9375.0-1.609375.640625-.65625.625-.75 1.6875zm10.359375-3.53125q1.671875.0 2.484375.65625.8125.640625.890625 1.9375h-1.359375v-.015625q-.0625-.65625-.578125-1.015625t-1.34375-.359375q-.8125.0-1.296875.28125-.46875.265625-.46875.765625.0.453125.421875.75.421875.28125 1.265625.46875l1.28125.28125q1.203125.265625 1.828125.828125.625.546875.625 1.46875.0 1.21875-.953125 1.921875-.9375.703125-2.578125.703125-1.578125.0-2.515625-.71875-.921875-.71875-.984375-2.09375h1.359375q.03125.765625.609375 1.1875.59375.40625 1.609375.40625.984375.0 1.484375-.3125.515625-.3125.515625-.921875.0-.546875-.5-.875t-2.0625-.640625q-1.5625-.296875-2.203125-.859375t-.640625-1.484375q0-1.09375.875-1.71875.890625-.640625 2.234375-.640625zm8 0q1.671875.0 2.484375.65625.8125.640625.890625 1.9375h-1.359375v-.015625q-.0625-.65625-.578125-1.015625t-1.34375-.359375q-.8125.0-1.296875.28125-.46875.265625-.46875.765625.0.453125.421875.75.421875.28125 1.265625.46875l1.28125.28125q1.203125.265625 1.828125.828125.625.546875.625 1.46875.0 1.21875-.953125 1.921875-.9375.703125-2.578125.703125-1.578125.0-2.515625-.71875-.921875-.71875-.984375-2.09375h1.359375q.03125.765625.609375 1.1875.59375.40625 1.609375.40625.984375.0 1.484375-.3125.515625-.3125.515625-.921875.0-.546875-.5-.875t-2.0625-.640625q-1.5625-.296875-2.203125-.859375t-.640625-1.484375q0-1.09375.875-1.71875.890625-.640625 2.234375-.640625zm8.625.0q1.6875.0 2.390625.609375.71875.59375.71875 1.609375.0 4.296875.0 4.765625t.421875.46875q.09375.0.203125-.015625.109375-.03125.21875-.0625v1.0625q-.1875.109375-.4375.171875t-.53125.0625q-.5625.0-.859375-.3125-.296875-.328125-.296875-.984375-.546875.640625-1.28125.96875t-1.640625.328125q-1.28125.0-2.015625-.609375-.71875-.609375-.71875-1.71875.0-1.125.703125-1.765625.71875-.65625 3.359375-.984375.890625-.125 1.203125-.34375.3125-.234375.3125-.6875.0-.6875-.4375-1.015625-.4375-.34375-1.40625-.34375-1 0-1.515625.390625-.5.375-.53125 1.171875h-1.359375q.0625-1.375.96875-2.0625.90625-.703125 2.53125-.703125zm-2.390625 6.234375q0 .578125.421875.90625.421875.3125 1.1875.3125 1.140625.0 1.828125-.5625.6875-.578125.6875-1.28125v-1.421875q-.34375.25-.890625.34375-.546875.078125-1.453125.203125t-1.34375.484375-.4375 1.015625zm10.96875-6.234375q.875.0 1.5.375.640625.375.984375 1h.015625v-1.1875h1.265625v7.65625q0 1.953125-.9375 2.96875t-2.890625 1.015625q-1.421875.0-2.390625-.625t-1.03125-1.796875h1.359375q.03125.625.671875.984375t1.46875.359375q1.203125.0 1.84375-.796875t.640625-2.375v-.515625h-.03125q-.328125.6875-1.015625 1.09375t-1.578125.40625q-1.671875.0-2.6875-1.15625-1-1.15625-1-3.03125.0-1.90625 1-3.140625 1.015625-1.234375 2.8125-1.234375zm-2.375 4.203125q0 1.484375.609375 2.328125.625.828125 1.734375.828125 1.125.0 1.78125-.859375.671875-.875.671875-2.34375.0-1.328125-.625-2.140625-.609375-.8125-1.734375-.8125-1.140625.0-1.796875.828125-.640625.8125-.640625 2.171875zm9.640625-7.15625v1.65625h-1.359375v-1.65625h1.359375zm0 3.140625v8.28125h-1.359375v-8.28125h1.359375zm6.1171875-.1875q1.5.0 2.171875.765625t.671875 2.1875v5.515625h-1.359375v-5.65625q0-.703125-.453125-1.15625-.4375-.453125-1.234375-.453125-1.15625.0-1.796875.703125t-.640625 1.828125v4.734375h-1.359375v-8.28125h1.28125v1.3125h.03125q.453125-.765625 1.109375-1.125.65625-.375 1.578125-.375zm8.2578125.0q.875.0 1.5.375.640625.375.984375 1h.015625v-1.1875h1.265625v7.65625q0 1.953125-.9375 2.96875t-2.890625 1.015625q-1.421875.0-2.390625-.625t-1.03125-1.796875h1.359375q.03125.625.671875.984375t1.46875.359375q1.203125.0 1.84375-.796875t.640625-2.375v-.515625h-.03125q-.328125.6875-1.015625 1.09375t-1.578125.40625q-1.671875.0-2.6875-1.15625-1-1.15625-1-3.03125.0-1.90625 1-3.140625 1.015625-1.234375 2.8125-1.234375zm-2.375 4.203125q0 1.484375.609375 2.328125.625.828125 1.734375.828125 1.125.0 1.78125-.859375.671875-.875.671875-2.34375.0-1.328125-.625-2.140625-.609375-.8125-1.734375-.8125-1.140625.0-1.796875.828125-.640625.8125-.640625 2.171875z" fill-rule="nonzero"/><path fill="#000" d="m117.88034 166.92027 4.46875 11.421875h-1.6875l-1.234375-3.4375h-4.84375l-1.28125 3.4375h-1.5625l4.46875-11.421875h1.671875zm-.875 1.375-1.9375 5.328125h3.875l-1.90625-5.328125h-.03125zm10.3203125 1.578125q1.765625.0 2.78125 1.21875 1.03125 1.21875 1.03125 3.140625t-1.015625 3.125q-1.015625 1.1875-2.765625 1.1875-.765625.0-1.515625-.328125-.734375-.328125-1.15625-.984375h-.03125v4.28125h-1.359375v-11.453125h1.359375v1.125h.03125q.3125-.640625 1-.96875.703125-.34375 1.640625-.34375zm-2.71875 4.328125q0 1.4375.6875 2.28125.703125.84375 1.921875.84375 1.171875.0 1.8125-.84375.65625-.84375.65625-2.34375.0-1.34375-.6875-2.203125-.671875-.859375-1.875-.859375t-1.859375.875-.65625 2.25zm12.203125-4.328125q1.765625.0 2.78125 1.21875 1.03125 1.21875 1.03125 3.140625t-1.015625 3.125q-1.015625 1.1875-2.765625 1.1875-.765625.0-1.515625-.328125-.734375-.328125-1.15625-.984375h-.03125v4.28125h-1.359375v-11.453125h1.359375v1.125h.03125q.3125-.640625 1-.96875.703125-.34375 1.640625-.34375zm-2.71875 4.328125q0 1.4375.6875 2.28125.703125.84375 1.921875.84375 1.171875.0 1.8125-.84375.65625-.84375.65625-2.34375.0-1.34375-.6875-2.203125-.671875-.859375-1.875-.859375t-1.859375.875-.65625 2.25z" fill-rule="nonzero"/><path fill="#000" fill-opacity="0" d="m68.3937 46.8084h119.62205v58.17323H68.3937z" fill-rule="evenodd"/><path fill="#000" d="m109.16957 59.746525q2.59375.0 3.984375 1.375 1.40625 1.375 1.40625 4.062496.0 3.015625-1.390625 4.5-1.375 1.484375-4 1.484375h-4.015625V59.746525h4.015625zm.09375 10.140621q1.703125.0 2.734375-1.109375 1.046875-1.125 1.046875-3.390625.0-2.2656212-.953125-3.3124962-.9375-1.046875-2.78125-1.046875h-2.640625v8.859371h2.59375zm10.375-7.187496q1.78125.0 2.765625 1.28125.984375 1.2812462.984375 3.2968712v.15625h-6.203125v.109375q0 1.171875.6875 1.890625t1.890625.71875q.90625.0 1.4375-.421875.546875-.421875.703125-1.1875h1.34375q-.265625 1.375-1.203125 2.109375-.921875.71875-2.328125.71875-1.296875.0-2.203125-.59375t-1.34375-1.640625q-.421875-1.0625-.421875-2.15625.0-1.828125 1.09375-3.0468712 1.109375-1.234375 2.796875-1.234375zm-2.453125 3.5312462h4.75q-.0625-1-.734375-1.65625-.65625-.6718712-1.65625-.6718712-.9375.0-1.609375.6406212-.65625.625-.75 1.6875zm8.328125-3.3437462 2.3125 6.906246h.03125l2.265625-6.906246h1.421875l-3.03125 8.281246h-1.453125l-3.0625-8.281246h1.515625zm8.71875-3.140625v1.65625h-1.359375v-1.65625h1.359375zm0 3.140625v8.281246h-1.359375V62.88715h1.359375zm5.5703125-.1875q1.515625.0 2.453125.71875.953125.7187462 1.109375 2.1249962h-1.40625q-.15625-.796875-.703125-1.21875-.53125-.4218712-1.34375-.4218712-1.265625.0-1.921875.8437462-.65625.84375-.65625 2.390625.0 1.375.640625 2.203125.65625.8125 1.78125.8125.984375.0 1.5625-.53125t.703125-1.484375h1.390625q-.21875 1.546875-1.15625 2.390625t-2.484375.84375q-1.8125.0-2.84375-1.140625t-1.03125-3.09375q0-2.03125 1.046875-3.2343712 1.046875-1.203125 2.859375-1.203125zm8.578125.0q1.78125.0 2.765625 1.28125.984375 1.2812462.984375 3.2968712v.15625h-6.203125v.109375q0 1.171875.6875 1.890625t1.890625.71875q.90625.0 1.4375-.421875.546875-.421875.703125-1.1875h1.34375q-.265625 1.375-1.203125 2.109375-.921875.71875-2.328125.71875-1.296875.0-2.203125-.59375t-1.34375-1.640625q-.421875-1.0625-.421875-2.15625.0-1.828125 1.09375-3.0468712 1.109375-1.234375 2.796875-1.234375zm-2.453125 3.5312462h4.75q-.0625-1-.734375-1.65625-.65625-.6718712-1.65625-.6718712-.9375.0-1.609375.6406212-.65625.625-.75 1.6875z" fill-rule="nonzero"/><path fill="#000" d="m123.02113 78.665276q1.671875.0 2.90625.78125 1.234375.765625 1.90625 2.15625t.671875 3.046875q0 1.671875-.671875 3.0625t-1.921875 2.171875q-1.234375.765625-2.890625.765625-1.640625.0-2.890625-.765625-1.234375-.78125-1.90625-2.15625-.671875-1.390625-.671875-3.078125.0-2.59375 1.484375-4.28125 1.5-1.703125 3.984375-1.703125zm-3.953125 5.984375q0 1.28125.46875 2.390625.46875 1.09375 1.359375 1.703125.90625.609375 2.125.609375 1.84375.0 2.890625-1.3125 1.0625-1.328125 1.0625-3.390625.0-2.03125-1.046875-3.359375-1.046875-1.34375-2.921875-1.34375-1.828125.0-2.890625 1.34375-1.046875 1.34375-1.046875 3.359375zm15.125-5.984375q1.90625.0 3.015625.921875 1.125.921875 1.1875 2.703125h-1.4375q-.125-1.171875-.84375-1.75-.703125-.59375-1.984375-.59375-1.21875.0-1.890625.515625-.671875.5-.671875 1.4375.0.671875.5625 1.109375.578125.421875 3.109375.921875 1.828125.375 2.734375 1.15625.90625.765625.90625 2.140625.0 1.59375-1.3125 2.515625-1.296875.90625-3.15625.90625-2.078125.0-3.390625-1.046875t-1.328125-3h1.4375q.015625 1.3125.9375 2.03125t2.390625.71875q1.390625.0 2.140625-.53125.765625-.53125.765625-1.546875.0-.8125-.703125-1.296875-.6875-.5-2.515625-.84375-2.4375-.46875-3.265625-1.1875-.828125-.734375-.828125-1.9375.0-1.53125 1.15625-2.4375 1.171875-.90625 2.984375-.90625z" fill-rule="nonzero"/><path fill="#f4cccc" d="m316.3746 10.8052845h131.93701v205.70079H316.3746z" fill-rule="evenodd"/><path stroke="#434343" stroke-width="2" stroke-linejoin="round" stroke-linecap="butt" d="m316.3746 10.8052845h131.93701v205.70079H316.3746z" fill-rule="evenodd"/><path fill="#c9daf8" d="m335.37985 117.01788h90.55118v82.74016h-90.55118z" fill-rule="evenodd"/><path stroke="#434343" stroke-width="2" stroke-linejoin="round" stroke-linecap="butt" d="m335.37985 117.01788h90.55118v82.74016h-90.55118z" fill-rule="evenodd"/><path fill="#000" fill-opacity="0" d="m320.84442 135.12811h119.62204v58.173233H320.84442z" fill-rule="evenodd"/><path fill="#000" d="m345.03824 148.06624 3.609375 9.59375 3.609375-9.59375h2.078125v11.421875h-1.4375v-9.515625h-.03125l-3.5625 9.515625h-1.296875l-3.578125-9.515625h-.03125v9.515625h-1.4375V148.06624h2.078125zm15.046875 2.953125q1.78125.0 2.765625 1.28125t.984375 3.296875v.15625h-6.203125v.109375q0 1.171875.6875 1.890625t1.890625.71875q.90625.0 1.4375-.421875.546875-.421875.703125-1.1875h1.34375q-.265625 1.375-1.203125 2.109375-.921875.71875-2.328125.71875-1.296875.0-2.203125-.59375t-1.34375-1.640625q-.421875-1.0625-.421875-2.15625.0-1.828125 1.09375-3.046875 1.109375-1.234375 2.796875-1.234375zm-2.453125 3.53125h4.75q-.0625-1-.734375-1.65625-.65625-.671875-1.65625-.671875-.9375.0-1.609375.640625-.65625.625-.75 1.6875zm10.359375-3.53125q1.671875.0 2.484375.65625.8125.640625.890625 1.9375h-1.359375v-.015625q-.0625-.65625-.578125-1.015625t-1.34375-.359375q-.8125.0-1.296875.28125-.46875.265625-.46875.765625.0.453125.421875.75.421875.28125 1.265625.46875l1.28125.28125q1.203125.265625 1.828125.828125.625.546875.625 1.46875.0 1.21875-.953125 1.921875-.9375.703125-2.578125.703125-1.578125.0-2.515625-.71875-.921875-.71875-.984375-2.09375h1.359375q.03125.765625.609375 1.1875.59375.40625 1.609375.40625.984375.0 1.484375-.3125.515625-.3125.515625-.921875.0-.546875-.5-.875t-2.0625-.640625q-1.5625-.296875-2.203125-.859375t-.640625-1.484375q0-1.09375.875-1.71875.890625-.640625 2.234375-.640625zm8 0q1.671875.0 2.484375.65625.8125.640625.890625 1.9375h-1.359375v-.015625q-.0625-.65625-.578125-1.015625t-1.34375-.359375q-.8125.0-1.296875.28125-.46875.265625-.46875.765625.0.453125.421875.75.421875.28125 1.265625.46875l1.28125.28125q1.203125.265625 1.828125.828125.625.546875.625 1.46875.0 1.21875-.953125 1.921875-.9375.703125-2.578125.703125-1.578125.0-2.515625-.71875-.921875-.71875-.984375-2.09375h1.359375q.03125.765625.609375 1.1875.59375.40625 1.609375.40625.984375.0 1.484375-.3125.515625-.3125.515625-.921875.0-.546875-.5-.875t-2.0625-.640625q-1.5625-.296875-2.203125-.859375t-.640625-1.484375q0-1.09375.875-1.71875.890625-.640625 2.234375-.640625zm8.625.0q1.6875.0 2.390625.609375.71875.59375.71875 1.609375.0 4.296875.0 4.765625t.421875.46875q.09375.0.203125-.015625.109375-.03125.21875-.0625v1.0625q-.1875.109375-.4375.171875t-.53125.0625q-.5625.0-.859375-.3125-.296875-.328125-.296875-.984375-.546875.640625-1.28125.96875t-1.640625.328125q-1.28125.0-2.015625-.609375-.71875-.609375-.71875-1.71875.0-1.125.703125-1.765625.71875-.65625 3.359375-.984375.890625-.125 1.203125-.34375.3125-.234375.3125-.6875.0-.6875-.4375-1.015625-.4375-.34375-1.40625-.34375-1 0-1.515625.390625-.5.375-.53125 1.171875h-1.359375q.0625-1.375.96875-2.0625.90625-.703125 2.53125-.703125zm-2.390625 6.234375q0 .578125.421875.90625.421875.3125 1.1875.3125 1.140625.0 1.828125-.5625.6875-.578125.6875-1.28125v-1.421875q-.34375.25-.890625.34375-.546875.078125-1.453125.203125t-1.34375.484375-.4375 1.015625zm10.96875-6.234375q.875.0 1.5.375.640625.375.984375 1h.015625v-1.1875h1.265625v7.65625q0 1.953125-.9375 2.96875t-2.890625 1.015625q-1.421875.0-2.390625-.625t-1.03125-1.796875h1.359375q.03125.625.671875.984375t1.46875.359375q1.203125.0 1.84375-.796875t.640625-2.375v-.515625h-.03125q-.328125.6875-1.015625 1.09375t-1.578125.40625q-1.671875.0-2.6875-1.15625-1-1.15625-1-3.03125.0-1.90625 1-3.140625 1.015625-1.234375 2.8125-1.234375zm-2.375 4.203125q0 1.484375.609375 2.328125.625.828125 1.734375.828125 1.125.0 1.78125-.859375.671875-.875.671875-2.34375.0-1.328125-.625-2.140625-.609375-.8125-1.734375-.8125-1.140625.0-1.796875.828125-.640625.8125-.640625 2.171875zm9.640625-7.15625v1.65625h-1.359375v-1.65625h1.359375zm0 3.140625v8.28125h-1.359375v-8.28125h1.359375zm6.1171875-.1875q1.5.0 2.171875.765625t.671875 2.1875v5.515625h-1.359375v-5.65625q0-.703125-.453125-1.15625-.4375-.453125-1.234375-.453125-1.15625.0-1.796875.703125t-.640625 1.828125v4.734375h-1.359375v-8.28125h1.28125v1.3125h.03125q.453125-.765625 1.109375-1.125.65625-.375 1.578125-.375zm8.2578125.0q.875.0 1.5.375.640625.375.984375 1h.015625v-1.1875h1.265625v7.65625q0 1.953125-.9375 2.96875t-2.890625 1.015625q-1.421875.0-2.390625-.625t-1.03125-1.796875h1.359375q.03125.625.671875.984375t1.46875.359375q1.203125.0 1.84375-.796875t.640625-2.375v-.515625h-.03125q-.328125.6875-1.015625 1.09375t-1.578125.40625q-1.671875.0-2.6875-1.15625-1-1.15625-1-3.03125.0-1.90625 1-3.140625 1.015625-1.234375 2.8125-1.234375zm-2.375 4.203125q0 1.484375.609375 2.328125.625.828125 1.734375.828125 1.125.0 1.78125-.859375.671875-.875.671875-2.34375.0-1.328125-.625-2.140625-.609375-.8125-1.734375-.8125-1.140625.0-1.796875.828125-.640625.8125-.640625 2.171875z" fill-rule="nonzero"/><path fill="#000" d="m372.0187 167.26625 4.46875 11.421875h-1.6875l-1.234375-3.4375h-4.84375l-1.28125 3.4375h-1.5625l4.46875-11.421875h1.671875zm-.875 1.375-1.9375 5.328125h3.875l-1.90625-5.328125h-.03125zm10.3203125 1.578125q1.765625.0 2.78125 1.21875 1.03125 1.21875 1.03125 3.140625t-1.015625 3.125q-1.015625 1.1875-2.765625 1.1875-.765625.0-1.515625-.328125-.734375-.328125-1.15625-.984375h-.03125V181.86h-1.359375v-11.453125h1.359375v1.125h.03125q.3125-.640625 1-.96875.703125-.34375 1.640625-.34375zm-2.71875 4.328125q0 1.4375.6875 2.28125.703125.84375 1.921875.84375 1.171875.0 1.8125-.84375.65625-.84375.65625-2.34375.0-1.34375-.6875-2.203125-.671875-.859375-1.875-.859375t-1.859375.875-.65625 2.25zm12.203125-4.328125q1.765625.0 2.78125 1.21875 1.03125 1.21875 1.03125 3.140625t-1.015625 3.125q-1.015625 1.1875-2.765625 1.1875-.765625.0-1.515625-.328125-.734375-.328125-1.15625-.984375h-.03125V181.86h-1.359375v-11.453125h1.359375v1.125h.03125q.3125-.640625 1-.96875.703125-.34375 1.640625-.34375zm-2.71875 4.328125q0 1.4375.6875 2.28125.703125.84375 1.921875.84375 1.171875.0 1.8125-.84375.65625-.84375.65625-2.34375.0-1.34375-.6875-2.203125-.671875-.859375-1.875-.859375t-1.859375.875-.65625 2.25z" fill-rule="nonzero"/><path fill="#000" fill-opacity="0" d="m322.53207 47.154366h119.62204v58.173225H322.53207z" fill-rule="evenodd"/><path fill="#000" d="m363.30795 60.09249q2.59375.0 3.984375 1.375 1.40625 1.375 1.40625 4.0625.0 3.015625-1.390625 4.5-1.375 1.484375-4 1.484375h-4.015625V60.09249h4.015625zm.09375 10.140625q1.703125.0 2.734375-1.109375 1.046875-1.125 1.046875-3.390625t-.953125-3.3125q-.9375-1.046875-2.78125-1.046875h-2.640625v8.859375h2.59375zm10.375-7.1875q1.78125.0 2.765625 1.28125t.984375 3.296875v.15625h-6.203125v.109375q0 1.171875.6875 1.890625t1.890625.71875q.90625.0 1.4375-.421875.546875-.421875.703125-1.1875h1.34375q-.265625 1.375-1.203125 2.109375-.921875.71875-2.328125.71875-1.296875.0-2.203125-.59375t-1.34375-1.640625q-.421875-1.0625-.421875-2.15625.0-1.828125 1.09375-3.046875 1.109375-1.234375 2.796875-1.234375zm-2.453125 3.53125h4.75q-.0625-1-.734375-1.65625-.65625-.671875-1.65625-.671875-.9375.0-1.609375.640625-.65625.625-.75 1.6875zm8.328125-3.34375 2.3125 6.90625h.03125l2.265625-6.90625h1.421875l-3.03125 8.28125h-1.453125l-3.0625-8.28125h1.515625zm8.71875-3.140625v1.65625h-1.359375v-1.65625h1.359375zm0 3.140625v8.28125h-1.359375v-8.28125h1.359375zm5.5703125-.1875q1.515625.0 2.453125.71875.953125.71875 1.109375 2.125h-1.40625q-.15625-.796875-.703125-1.21875-.53125-.421875-1.34375-.421875-1.265625.0-1.921875.84375t-.65625 2.390625q0 1.375.640625 2.203125.65625.8125 1.78125.8125.984375.0 1.5625-.53125t.703125-1.484375h1.390625q-.21875 1.546875-1.15625 2.390625t-2.484375.84375q-1.8125.0-2.84375-1.140625t-1.03125-3.09375q0-2.03125 1.046875-3.234375t2.859375-1.203125zm8.578125.0q1.78125.0 2.765625 1.28125t.984375 3.296875v.15625h-6.203125v.109375q0 1.171875.6875 1.890625t1.890625.71875q.90625.0 1.4375-.421875.546875-.421875.703125-1.1875h1.34375q-.265625 1.375-1.203125 2.109375-.921875.71875-2.328125.71875-1.296875.0-2.203125-.59375t-1.34375-1.640625q-.421875-1.0625-.421875-2.15625.0-1.828125 1.09375-3.046875 1.109375-1.234375 2.796875-1.234375zm-2.453125 3.53125h4.75q-.0625-1-.734375-1.65625-.65625-.671875-1.65625-.671875-.9375.0-1.609375.640625-.65625.625-.75 1.6875z" fill-rule="nonzero"/><path fill="#000" d="m377.15952 79.011246q1.671875.0 2.90625.78125 1.234375.765625 1.90625 2.15625t.671875 3.046875q0 1.671875-.671875 3.0625t-1.921875 2.171875q-1.234375.765625-2.890625.765625-1.640625.0-2.890625-.765625-1.234375-.78125-1.90625-2.15625-.671875-1.390625-.671875-3.078125.0-2.59375 1.484375-4.28125 1.5-1.703125 3.984375-1.703125zm-3.953125 5.984375q0 1.28125.46875 2.390625.46875 1.09375 1.359375 1.703125.90625.609375 2.125.609375 1.84375.0 2.890625-1.3125 1.0625-1.328125 1.0625-3.390625.0-2.03125-1.046875-3.359375-1.046875-1.34375-2.921875-1.34375-1.828125.0-2.890625 1.34375-1.046875 1.34375-1.046875 3.359375zm15.125-5.984375q1.90625.0 3.015625.921875 1.125.921875 1.1875 2.703125h-1.4375q-.125-1.171875-.84375-1.75-.703125-.59375-1.984375-.59375-1.21875.0-1.890625.515625-.671875.5-.671875 1.4375.0.671875.5625 1.109375.578125.421875 3.109375.921875 1.828125.375 2.734375 1.15625.90625.765625.90625 2.140625.0 1.59375-1.3125 2.515625-1.296875.90625-3.15625.90625-2.078125.0-3.390625-1.046875t-1.328125-3h1.4375q.015625 1.3125.9375 2.03125t2.390625.71875q1.390625.0 2.140625-.53125.765625-.53125.765625-1.546875.0-.8125-.703125-1.296875-.6875-.5-2.515625-.84375-2.4375-.46875-3.265625-1.1875-.828125-.734375-.828125-1.9375.0-1.53125 1.15625-2.4375 1.171875-.90625 2.984375-.90625z" fill-rule="nonzero"/><path fill="#000" fill-opacity="0" d="m126.51706 134.78215 254.14172.34646606" fill-rule="evenodd"/><path stroke="#000" stroke-width="1" stroke-linejoin="round" stroke-linecap="butt" d="m132.51704 134.79033 242.14174.33009338" fill-rule="evenodd"/><path fill="#000" stroke="#000" stroke-width="1" stroke-linecap="butt" d="m132.5193 133.1386-4.540344 1.6455536 4.535843 1.6579132z" fill-rule="evenodd"/><path fill="#000" stroke="#000" stroke-width="1" stroke-linecap="butt" d="m374.65656 136.77216 4.540344-1.6455383-4.535858-1.6579132z" fill-rule="evenodd"/><path fill="#000" fill-opacity="0" d="m-6.8005247 62.965878h71.55905v42.01575h-71.55905z" fill-rule="evenodd"/><path fill="#000" d="m15.800834 76.57338 5.203124 13.3125h-1.953125l-1.453125-4.015625h-5.640624l-1.5 4.015625h-1.8125l5.203125-13.3125h1.953125zm-1.03125 1.59375-2.25 6.21875h4.515624l-2.218749-6.21875h-.046875zm8.963302-1.59375v13.3125h-1.59375v-13.3125h1.59375zm4.1448193.0v1.9375h-1.59375v-1.9375h1.59375zm0 3.671875v9.640625h-1.59375v-9.640625h1.59375zm6.488571-.21875q1.765625.0 2.859375.84375 1.109375.828125 1.296875 2.46875h-1.625q-.203125-.9375-.828125-1.421875-.625-.5-1.5625-.5-1.484375.0-2.25.984375t-.765625 2.78125q0 1.609375.75 2.578125.765625.953125 2.078125.953125 1.15625.0 1.8125-.625.671875-.625.828125-1.734375h1.625q-.265625 1.8125-1.359375 2.796875-1.09375.96875-2.890625.96875-2.109375.0-3.3125-1.328125t-1.203125-3.609375q0-2.359375 1.21875-3.75 1.21875-1.40625 3.328125-1.40625zm10.004822.0q2.078125.0 3.21875 1.5 1.15625 1.484375 1.15625 3.828125v.1875h-7.234375v.109375q0 1.390625.796875 2.234375.8125.828125 2.21875.828125 1.046875.0 1.671875-.484375.625-.5.828125-1.40625h1.5625q-.328125 1.609375-1.40625 2.453125t-2.71875.84375q-1.515625.0-2.578125-.6875-1.046875-.6875-1.546875-1.90625-.5-1.234375-.5-2.515625.0-2.140625 1.28125-3.5625 1.296875-1.421875 3.25-1.421875zm-2.859375 4.109375h5.546875q-.078125-1.171875-.859375-1.9375-.765625-.78125-1.9375-.78125-1.09375.0-1.875.734375-.765625.734375-.875 1.984375z" fill-rule="nonzero"/><path fill="#000" fill-opacity="0" d="m448.31235 62.965878h71.55905v42.01575h-71.55905z" fill-rule="evenodd"/><path fill="#000" d="m473.95633 76.57338q2.46875.0 3.34375 1 .890625.984375.890625 2.25.0 1.0625-.515625 1.84375-.515625.765625-1.453125 1.15625v.03125q1.21875.265625 1.875 1.125.65625.84375.65625 2.078125.0 1.625-1.140625 2.734375-1.125 1.09375-2.828125 1.09375h-6.515625v-13.3125h5.6875zm-.28125 5.71875q1.328125.0 2.03125-.5.71875-.5.71875-1.625.0-1.0625-.59375-1.578125-.59375-.53125-2.140625-.53125h-3.65625v4.234375h3.640625zm.875 6.09375q1.078125.0 1.75-.640625.6875-.640625.6875-1.734375.0-1.125-.765625-1.671875-.765625-.5625-2.203125-.5625h-3.984375v4.609375h4.515625zm10.405609-8.359375q2.1875.0 3.421875 1.40625 1.25 1.40625 1.25 3.640625.0 2.25-1.28125 3.65625-1.265625 1.390625-3.390625 1.390625-2.09375.0-3.390625-1.375t-1.296875-3.671875 1.265625-3.671875 3.421875-1.375zm-3.015625 5.046875q0 1.65625.84375 2.65625.859375.984375 2.171875.984375 1.296875.0 2.140625-.984375.859375-1 .859375-2.65625.0-1.640625-.84375-2.640625-.84375-1.015625-2.171875-1.015625-1.28125.0-2.140625.984375t-.859375 2.671875zm11.197144-8.5v4.984375h.046875q.375-.75 1.171875-1.140625t1.90625-.390625q2.0625.0 3.25 1.421875t1.1875 3.640625q0 2.25-1.1875 3.640625-1.171875 1.390625-3.203125 1.390625-.90625.0-1.765625-.375t-1.359375-1.140625h-.046875v1.28125h-1.578125v-13.3125h1.578125zm-.046875 8.484375q0 1.671875.8125 2.671875.8125.984375 2.234375.984375 1.375.0 2.125-.984375t.75-2.75q0-1.546875-.796875-2.546875-.796875-1.015625-2.1875-1.015625-1.40625.0-2.171875 1.015625t-.765625 2.625z" fill-rule="nonzero"/><path fill="#000" fill-opacity="0" d="m90.73753 237.00787h90.55118v64.62991H90.73753z" fill-rule="evenodd"/><path fill="#000" d="m116.025856 250.61537 5.203125 13.312515h-1.953125l-1.453125-4.015625h-5.640625l-1.5 4.015625h-1.8125l5.203125-13.312515h1.953125zm-1.03125 1.59375-2.25 6.2187653h4.515625l-2.21875-6.2187653h-.046875zm8.963303-1.59375v13.312515h-1.59375V250.61537h1.59375zm4.1448135.0v1.9375h-1.5937424v-1.9375h1.5937424zm0 3.671875v9.64064h-1.5937424v-9.64064h1.5937424zm6.488571-.21875q1.765625.0 2.859375.84375 1.109375.828125 1.296875 2.4687653h-1.625q-.203125-.9375-.828125-1.4218903-.625-.5-1.5625-.5-1.484375.0-2.25.98439026-.765625.984375-.765625 2.78125.0 1.609375.75 2.578125.765625.953125 2.078125.953125 1.15625.0 1.8125-.625.671875-.625.828125-1.734375h1.625q-.265625 1.8125-1.359375 2.796875-1.09375.96875-2.890625.96875-2.109375.0-3.3125-1.328125t-1.203125-3.609375q0-2.359375 1.21875-3.7500153 1.21875-1.40625 3.328125-1.40625zm10.004822.0q2.078125.0 3.21875 1.5 1.15625 1.4843903 1.15625 3.8281403v.1875h-7.234375v.109375q0 1.390625.796875 2.234375.8125.828125 2.21875.828125 1.046875.0 1.671875-.484375.625-.5.828125-1.40625h1.5625q-.328125 1.609375-1.40625 2.453125t-2.71875.84375q-1.515625.0-2.578125-.6875-1.046875-.6875-1.546875-1.90625-.5-1.234375-.5-2.515625.0-2.140625 1.28125-3.5625153 1.296875-1.421875 3.25-1.421875zm-2.859375 4.1093903h5.546875q-.078125-1.171875-.859375-1.9375-.765625-.78126526-1.9375-.78126526-1.09375.0-1.875.73439026-.765625.734375-.875 1.984375zm11.286072-7.5625153v2.140625q0 1.125-.53125 1.890625-.515625.765625-1.515625.765625v-.921875q.53125.0.796875-.46875.28125-.46875.296875-1.34375h-1.109375v-2.0625h2.0625zm5.0869446 3.453125q1.9375.0 2.890625.75t1.03125 2.2656403h-1.578125v-.03125q-.0625-.765625-.671875-1.1718903-.609375-.421875-1.5625-.421875t-1.515625.328125q-.546875.31251526-.546875.90626526.0.515625.484375.859375.5.328125 1.484375.546875l1.484375.328125q1.40625.3125 2.125.953125.734375.640625.734375 1.734375.0 1.421875-1.109375 2.234375-1.09375.8125-2.984375.8125-1.859375.0-2.953125-.828125-1.078125-.84375-1.140625-2.453125h1.59375q.03125.90625.703125 1.390625.6875.484375 1.875.484375 1.15625.0 1.75-.359375.59375-.375.59375-1.078125.0-.65625-.59375-1.03125t-2.40625-.734375q-1.828125-.359375-2.578125-1.015625-.734375-.65625-.734375-1.734375.0-1.2656403 1.03125-2.0000153t2.59375-.734375z" fill-rule="nonzero"/><path fill="#000" d="m118.529015 273.01538v13.3125h-1.59375v-1.296875h-.03125q-.375.734375-1.1875 1.140625-.8125.390625-1.890625.390625-2.015625.0-3.234375-1.40625-1.203125-1.40625-1.203125-3.671875.0-2.234375 1.171875-3.625t3.21875-1.390625q.953125.0 1.796875.390625.859375.375 1.328125 1.109375h.03125v-4.953125h1.59375zm-7.46875 8.5625q0 1.5625.8125 2.578125.8125 1 2.1875 1 1.390625.0 2.15625-1 .78125-1.015625.78125-2.640625.0-1.640625-.796875-2.640625-.78125-1.015625-2.265625-1.015625-1.359375.0-2.125 1-.75.984375-.75 2.71875zm13.918304-5.109375q2.078125.0 3.2187424 1.5 1.15625 1.484375 1.15625 3.828125v.1875h-7.2343674v.109375q0 1.390625.796875 2.234375.8125.828125 2.21875.828125 1.046875.0 1.671875-.484375.625-.5.828125-1.40625h1.5624924q-.328125 1.609375-1.4062424 2.453125-1.078125.84375-2.71875.84375-1.515625.0-2.578125-.6875-1.046875-.6875-1.546875-1.90625-.5-1.234375-.5-2.515625.0-2.140625 1.28125-3.5625 1.296875-1.421875 3.25-1.421875zm-2.859375 4.109375h5.546875q-.078125-1.171875-.859375-1.9375-.765625-.78125-1.9375-.78125-1.09375.0-1.875.734375-.765625.734375-.875 1.984375zm9.707939-3.890625 2.703125 8.03125h.03125l2.640625-8.03125h1.65625l-3.53125 9.640625h-1.6875l-3.578125-9.640625h1.765625zm10.171875-3.671875v1.9375h-1.59375v-1.9375h1.59375zm0 3.671875v9.640625h-1.59375v-9.640625h1.59375zm6.488571-.21875q1.765625.0 2.859375.84375 1.109375.828125 1.296875 2.46875h-1.625q-.203125-.9375-.828125-1.421875-.625-.5-1.5625-.5-1.484375.0-2.25.984375t-.765625 2.78125q0 1.609375.75 2.578125.765625.953125 2.078125.953125 1.15625.0 1.8125-.625.671875-.625.828125-1.734375h1.625q-.265625 1.8125-1.359375 2.796875-1.09375.96875-2.890625.96875-2.109375.0-3.3125-1.328125t-1.203125-3.609375q0-2.359375 1.21875-3.75 1.21875-1.40625 3.328125-1.40625zm10.004822.0q2.078125.0 3.21875 1.5 1.15625 1.484375 1.15625 3.828125v.1875h-7.234375v.109375q0 1.390625.796875 2.234375.8125.828125 2.21875.828125 1.046875.0 1.671875-.484375.625-.5.828125-1.40625h1.5625q-.328125 1.609375-1.40625 2.453125t-2.71875.84375q-1.515625.0-2.578125-.6875-1.046875-.6875-1.546875-1.90625-.5-1.234375-.5-2.515625.0-2.140625 1.28125-3.5625 1.296875-1.421875 3.25-1.421875zm-2.859375 4.109375h5.546875q-.078125-1.171875-.859375-1.9375-.765625-.78125-1.9375-.78125-1.09375.0-1.875.734375-.765625.734375-.875 1.984375z" fill-rule="nonzero"/><path fill="#000" fill-opacity="0" d="m335.38058 237.00787h90.55118v64.62991h-90.55118z" fill-rule="evenodd"/><path fill="#000" d="m363.71155 250.61537q2.46875.0 3.34375 1 .890625.984375.890625 2.25.0 1.0625-.515625 1.84375-.515625.76564026-1.453125 1.1562653v.03125q1.21875.265625 1.875 1.125.65625.84375.65625 2.078125.0 1.625-1.140625 2.734375-1.125 1.09375-2.828125 1.09375h-6.515625v-13.312515h5.6875zm-.28125 5.7187653q1.328125.0 2.03125-.50001526.71875-.5.71875-1.625.0-1.0625-.59375-1.578125-.59375-.53125-2.140625-.53125h-3.65625v4.2343903h3.640625zm.875 6.09375q1.078125.0 1.75-.640625.6875-.640625.6875-1.734375.0-1.125-.765625-1.671875-.765625-.5625-2.203125-.5625h-3.984375v4.609375h4.515625zm10.405609-8.35939q2.1875.0 3.421875 1.40625 1.25 1.4062653 1.25 3.6406403.0 2.25-1.28125 3.65625-1.265625 1.390625-3.390625 1.390625-2.09375.0-3.390625-1.375t-1.296875-3.671875 1.265625-3.6718903q1.265625-1.375 3.421875-1.375zm-3.015625 5.0468903q0 1.65625.84375 2.65625.859375.984375 2.171875.984375 1.296875.0 2.140625-.984375.859375-1 .859375-2.65625.0-1.640625-.84375-2.640625-.84375-1.0156403-2.171875-1.0156403-1.28125.0-2.140625.98439026-.859375.984375-.859375 2.671875zm11.197144-8.500015v4.984375h.046875q.375-.75 1.171875-1.140625t1.90625-.390625q2.0625.0 3.25 1.421875 1.1875 1.4218903 1.1875 3.6406403.0 2.25-1.1875 3.640625-1.171875 1.390625-3.203125 1.390625-.90625.0-1.765625-.375t-1.359375-1.140625h-.046875v1.28125h-1.578125v-13.312515h1.578125zm-.046875 8.48439q0 1.671875.8125 2.671875.8125.984375 2.234375.984375 1.375.0 2.125-.984375t.75-2.75q0-1.546875-.796875-2.546875-.796875-1.0156403-2.1875-1.0156403-1.40625.0-2.171875 1.0156403-.765625 1.015625-.765625 2.625zm11.887054-8.48439v2.140625q0 1.125-.53125 1.890625-.515625.765625-1.515625.765625v-.921875q.53125.0.796875-.46875.28125-.46875.296875-1.34375h-1.109375v-2.0625h2.0625zm5.0869446 3.453125q1.9375.0 2.890625.75t1.03125 2.2656403h-1.578125v-.03125q-.0625-.765625-.671875-1.1718903-.609375-.421875-1.5625-.421875t-1.515625.328125q-.546875.31251526-.546875.90626526.0.515625.484375.859375.5.328125 1.484375.546875l1.484375.328125q1.40625.3125 2.125.953125.734375.640625.734375 1.734375.0 1.421875-1.109375 2.234375-1.09375.8125-2.984375.8125-1.859375.0-2.953125-.828125-1.078125-.84375-1.140625-2.453125h1.59375q.03125.90625.703125 1.390625.6875.484375 1.875.484375 1.15625.0 1.75-.359375.59375-.375.59375-1.078125.0-.65625-.59375-1.03125t-2.40625-.734375q-1.828125-.359375-2.578125-1.015625-.734375-.65625-.734375-1.734375.0-1.2656403 1.03125-2.0000153t2.59375-.734375z" fill-rule="nonzero"/><path fill="#000" d="m363.17206 273.01538v13.3125h-1.59375v-1.296875h-.03125q-.375.734375-1.1875 1.140625-.8125.390625-1.890625.390625-2.015625.0-3.234375-1.40625-1.203125-1.40625-1.203125-3.671875.0-2.234375 1.171875-3.625t3.21875-1.390625q.953125.0 1.796875.390625.859375.375 1.328125 1.109375h.03125v-4.953125h1.59375zm-7.46875 8.5625q0 1.5625.8125 2.578125.8125 1 2.1875 1 1.390625.0 2.15625-1 .78125-1.015625.78125-2.640625.0-1.640625-.796875-2.640625-.78125-1.015625-2.265625-1.015625-1.359375.0-2.125 1-.75.984375-.75 2.71875zm13.918304-5.109375q2.078125.0 3.21875 1.5 1.15625 1.484375 1.15625 3.828125v.1875h-7.234375v.109375q0 1.390625.796875 2.234375.8125.828125 2.21875.828125 1.046875.0 1.671875-.484375.625-.5.828125-1.40625h1.5625q-.328125 1.609375-1.40625 2.453125t-2.71875.84375q-1.515625.0-2.578125-.6875-1.046875-.6875-1.546875-1.90625-.5-1.234375-.5-2.515625.0-2.140625 1.28125-3.5625 1.296875-1.421875 3.25-1.421875zm-2.859375 4.109375h5.546875q-.078125-1.171875-.859375-1.9375-.765625-.78125-1.9375-.78125-1.09375.0-1.875.734375-.765625.734375-.875 1.984375zm9.707947-3.890625 2.703125 8.03125h.03125l2.640625-8.03125h1.65625l-3.53125 9.640625h-1.6875l-3.578125-9.640625h1.765625zm10.171875-3.671875v1.9375h-1.59375v-1.9375h1.59375zm0 3.671875v9.640625h-1.59375v-9.640625h1.59375zm6.4885864-.21875q1.765625.0 2.859375.84375 1.109375.828125 1.296875 2.46875h-1.625q-.203125-.9375-.828125-1.421875-.625-.5-1.5625-.5-1.484375.0-2.25.984375t-.765625 2.78125q0 1.609375.75 2.578125.765625.953125 2.078125.953125 1.15625.0 1.8125-.625.671875-.625.828125-1.734375h1.625q-.265625 1.8125-1.359375 2.796875-1.09375.96875-2.890625.96875-2.109375.0-3.3125-1.328125t-1.203125-3.609375q0-2.359375 1.21875-3.75 1.21875-1.40625 3.328125-1.40625zm10.004822.0q2.078125.0 3.21875 1.5 1.15625 1.484375 1.15625 3.828125v.1875h-7.234375v.109375q0 1.390625.796875 2.234375.8125.828125 2.21875.828125 1.046875.0 1.671875-.484375.625-.5.828125-1.40625h1.5625q-.328125 1.609375-1.40625 2.453125t-2.71875.84375q-1.515625.0-2.578125-.6875-1.046875-.6875-1.546875-1.90625-.5-1.234375-.5-2.515625.0-2.140625 1.28125-3.5625 1.296875-1.421875 3.25-1.421875zm-2.859375 4.109375h5.546875q-.078125-1.171875-.859375-1.9375-.765625-.78125-1.9375-.78125-1.09375.0-1.875.734375-.765625.734375-.875 1.984375z" fill-rule="nonzero"/></g></svg>