<svg version="1.1" viewBox="0.0 0.0 518.0 298.0" fill="none" stroke="none" stroke-linecap="square" stroke-miterlimit="10" xmlns:xlink="http://www.w3.org/1999/xlink" xmlns="http://www.w3.org/2000/svg"><clipPath id="p.0"><path d="m0 0l518.0 0l0 298.0l-518.0 0l0 -298.0z" clip-rule="nonzero"/></clipPath><g clip-path="url(#p.0)"><path fill="#000000" fill-opacity="0.0" d="m0 0l518.0 0l0 298.0l-518.0 0z" fill-rule="evenodd"/><path fill="#f4cccc" d="m62.23622 10.459317l131.93701 0l0 205.70079l-131.93701 0z" fill-rule="evenodd"/><path stroke="#434343" stroke-width="2.0" stroke-linejoin="round" stroke-linecap="butt" d="m62.23622 10.459317l131.93701 0l0 205.70079l-131.93701 0z" fill-rule="evenodd"/><path fill="#c9daf8" d="m81.24147 116.67191l90.55118 0l0 82.740166l-90.55118 0z" fill-rule="evenodd"/><path stroke="#434343" stroke-width="2.0" stroke-linejoin="round" stroke-linecap="butt" d="m81.24147 116.67191l90.55118 0l0 82.740166l-90.55118 0z" fill-rule="evenodd"/><path fill="#000000" fill-opacity="0.0" d="m66.70604 134.78215l119.62204 0l0 58.173233l-119.62204 0z" fill-rule="evenodd"/><path fill="#000000" d="m90.89987 147.72028l3.609375 9.59375l3.609375 -9.59375l2.078125 0l0 11.421875l-1.4375 0l0 -9.515625l-0.03125 0l-3.5625 9.515625l-1.296875 0l-3.578125 -9.515625l-0.03125 0l0 9.515625l-1.4375 0l0 -11.421875l2.078125 0zm15.046875 2.953125q1.78125 0 2.765625 1.28125q0.984375 1.28125 0.984375 3.296875l0 0.15625l-6.203125 0l0 0.109375q0 1.171875 0.6875 1.890625q0.6875 0.71875 1.890625 0.71875q0.90625 0 1.4375 -0.421875q0.546875 -0.421875 0.703125 -1.1875l1.34375 0q-0.265625 1.375 -1.203125 2.109375q-0.921875 0.71875 -2.328125 0.71875q-1.296875 0 -2.203125 -0.59375q-0.90625 -0.59375 -1.34375 -1.640625q-0.421875 -1.0625 -0.421875 -2.15625q0 -1.828125 1.09375 -3.046875q1.109375 -1.234375 2.796875 -1.234375zm-2.453125 3.53125l4.75 0q-0.0625 -1.0 -0.734375 -1.65625q-0.65625 -0.671875 -1.65625 -0.671875q-0.9375 0 -1.609375 0.640625q-0.65625 0.625 -0.75 1.6875zm10.359375 -3.53125q1.671875 0 2.484375 0.65625q0.8125 0.640625 0.890625 1.9375l-1.359375 0l0 -0.015625q-0.0625 -0.65625 -0.578125 -1.015625q-0.515625 -0.359375 -1.34375 -0.359375q-0.8125 0 -1.296875 0.28125q-0.46875 0.265625 -0.46875 0.765625q0 0.453125 0.421875 0.75q0.421875 0.28125 1.265625 0.46875l1.28125 0.28125q1.203125 0.265625 1.828125 0.828125q0.625 0.546875 0.625 1.46875q0 1.21875 -0.953125 1.921875q-0.9375 0.703125 -2.578125 0.703125q-1.578125 0 -2.515625 -0.71875q-0.921875 -0.71875 -0.984375 -2.09375l1.359375 0q0.03125 0.765625 0.609375 1.1875q0.59375 0.40625 1.609375 0.40625q0.984375 0 1.484375 -0.3125q0.515625 -0.3125 0.515625 -0.921875q0 -0.546875 -0.5 -0.875q-0.5 -0.328125 -2.0625 -0.640625q-1.5625 -0.296875 -2.203125 -0.859375q-0.640625 -0.5625 -0.640625 -1.484375q0 -1.09375 0.875 -1.71875q0.890625 -0.640625 2.234375 -0.640625zm8.0 0q1.671875 0 2.484375 0.65625q0.8125 0.640625 0.890625 1.9375l-1.359375 0l0 -0.015625q-0.0625 -0.65625 -0.578125 -1.015625q-0.515625 -0.359375 -1.34375 -0.359375q-0.8125 0 -1.296875 0.28125q-0.46875 0.265625 -0.46875 0.765625q0 0.453125 0.421875 0.75q0.421875 0.28125 1.265625 0.46875l1.28125 0.28125q1.203125 0.265625 1.828125 0.828125q0.625 0.546875 0.625 1.46875q0 1.21875 -0.953125 1.921875q-0.9375 0.703125 -2.578125 0.703125q-1.578125 0 -2.515625 -0.71875q-0.921875 -0.71875 -0.984375 -2.09375l1.359375 0q0.03125 0.765625 0.609375 1.1875q0.59375 0.40625 1.609375 0.40625q0.984375 0 1.484375 -0.3125q0.515625 -0.3125 0.515625 -0.921875q0 -0.546875 -0.5 -0.875q-0.5 -0.328125 -2.0625 -0.640625q-1.5625 -0.296875 -2.203125 -0.859375q-0.640625 -0.5625 -0.640625 -1.484375q0 -1.09375 0.875 -1.71875q0.890625 -0.640625 2.234375 -0.640625zm8.625 0q1.6875 0 2.390625 0.609375q0.71875 0.59375 0.71875 1.609375q0 4.296875 0 4.765625q0 0.46875 0.421875 0.46875q0.09375 0 0.203125 -0.015625q0.109375 -0.03125 0.21875 -0.0625l0 1.0625q-0.1875 0.109375 -0.4375 0.171875q-0.25 0.0625 -0.53125 0.0625q-0.5625 0 -0.859375 -0.3125q-0.296875 -0.328125 -0.296875 -0.984375q-0.546875 0.640625 -1.28125 0.96875q-0.734375 0.328125 -1.640625 0.328125q-1.28125 0 -2.015625 -0.609375q-0.71875 -0.609375 -0.71875 -1.71875q0 -1.125 0.703125 -1.765625q0.71875 -0.65625 3.359375 -0.984375q0.890625 -0.125 1.203125 -0.34375q0.3125 -0.234375 0.3125 -0.6875q0 -0.6875 -0.4375 -1.015625q-0.4375 -0.34375 -1.40625 -0.34375q-1.0 0 -1.515625 0.390625q-0.5 0.375 -0.53125 1.171875l-1.359375 0q0.0625 -1.375 0.96875 -2.0625q0.90625 -0.703125 2.53125 -0.703125zm-2.390625 6.234375q0 0.578125 0.421875 0.90625q0.421875 0.3125 1.1875 0.3125q1.140625 0 1.828125 -0.5625q0.6875 -0.578125 0.6875 -1.28125l0 -1.421875q-0.34375 0.25 -0.890625 0.34375q-0.546875 0.078125 -1.453125 0.203125q-0.90625 0.125 -1.34375 0.484375q-0.4375 0.359375 -0.4375 1.015625zm10.96875 -6.234375q0.875 0 1.5 0.375q0.640625 0.375 0.984375 1.0l0.015625 0l0 -1.1875l1.265625 0l0 7.65625q0 1.953125 -0.9375 2.96875q-0.9375 1.015625 -2.890625 1.015625q-1.421875 0 -2.390625 -0.625q-0.96875 -0.625 -1.03125 -1.796875l1.359375 0q0.03125 0.625 0.671875 0.984375q0.640625 0.359375 1.46875 0.359375q1.203125 0 1.84375 -0.796875q0.640625 -0.796875 0.640625 -2.375l0 -0.515625l-0.03125 0q-0.328125 0.6875 -1.015625 1.09375q-0.6875 0.40625 -1.578125 0.40625q-1.671875 0 -2.6875 -1.15625q-1.0 -1.15625 -1.0 -3.03125q0 -1.90625 1.0 -3.140625q1.015625 -1.234375 2.8125 -1.234375zm-2.375 4.203125q0 1.484375 0.609375 2.328125q0.625 0.828125 1.734375 0.828125q1.125 0 1.78125 -0.859375q0.671875 -0.875 0.671875 -2.34375q0 -1.328125 -0.625 -2.140625q-0.609375 -0.8125 -1.734375 -0.8125q-1.140625 0 -1.796875 0.828125q-0.640625 0.8125 -0.640625 2.171875zm9.640625 -7.15625l0 1.65625l-1.359375 0l0 -1.65625l1.359375 0zm0 3.140625l0 8.28125l-1.359375 0l0 -8.28125l1.359375 0zm6.1171875 -0.1875q1.5 0 2.171875 0.765625q0.671875 0.765625 0.671875 2.1875l0 5.515625l-1.359375 0l0 -5.65625q0 -0.703125 -0.453125 -1.15625q-0.4375 -0.453125 -1.234375 -0.453125q-1.15625 0 -1.796875 0.703125q-0.640625 0.703125 -0.640625 1.828125l0 4.734375l-1.359375 0l0 -8.28125l1.28125 0l0 1.3125l0.03125 0q0.453125 -0.765625 1.109375 -1.125q0.65625 -0.375 1.578125 -0.375zm8.2578125 0q0.875 0 1.5 0.375q0.640625 0.375 0.984375 1.0l0.015625 0l0 -1.1875l1.265625 0l0 7.65625q0 1.953125 -0.9375 2.96875q-0.9375 1.015625 -2.890625 1.015625q-1.421875 0 -2.390625 -0.625q-0.96875 -0.625 -1.03125 -1.796875l1.359375 0q0.03125 0.625 0.671875 0.984375q0.640625 0.359375 1.46875 0.359375q1.203125 0 1.84375 -0.796875q0.640625 -0.796875 0.640625 -2.375l0 -0.515625l-0.03125 0q-0.328125 0.6875 -1.015625 1.09375q-0.6875 0.40625 -1.578125 0.40625q-1.671875 0 -2.6875 -1.15625q-1.0 -1.15625 -1.0 -3.03125q0 -1.90625 1.0 -3.140625q1.015625 -1.234375 2.8125 -1.234375zm-2.375 4.203125q0 1.484375 0.609375 2.328125q0.625 0.828125 1.734375 0.828125q1.125 0 1.78125 -0.859375q0.671875 -0.875 0.671875 -2.34375q0 -1.328125 -0.625 -2.140625q-0.609375 -0.8125 -1.734375 -0.8125q-1.140625 0 -1.796875 0.828125q-0.640625 0.8125 -0.640625 2.171875z" fill-rule="nonzero"/><path fill="#000000" d="m117.88034 166.92027l4.46875 11.421875l-1.6875 0l-1.234375 -3.4375l-4.84375 0l-1.28125 3.4375l-1.5625 0l4.46875 -11.421875l1.671875 0zm-0.875 1.375l-1.9375 5.328125l3.875 0l-1.90625 -5.328125l-0.03125 0zm10.3203125 1.578125q1.765625 0 2.78125 1.21875q1.03125 1.21875 1.03125 3.140625q0 1.921875 -1.015625 3.125q-1.015625 1.1875 -2.765625 1.1875q-0.765625 0 -1.515625 -0.328125q-0.734375 -0.328125 -1.15625 -0.984375l-0.03125 0l0 4.28125l-1.359375 0l0 -11.453125l1.359375 0l0 1.125l0.03125 0q0.3125 -0.640625 1.0 -0.96875q0.703125 -0.34375 1.640625 -0.34375zm-2.71875 4.328125q0 1.4375 0.6875 2.28125q0.703125 0.84375 1.921875 0.84375q1.171875 0 1.8125 -0.84375q0.65625 -0.84375 0.65625 -2.34375q0 -1.34375 -0.6875 -2.203125q-0.671875 -0.859375 -1.875 -0.859375q-1.203125 0 -1.859375 0.875q-0.65625 0.875 -0.65625 2.25zm12.203125 -4.328125q1.765625 0 2.78125 1.21875q1.03125 1.21875 1.03125 3.140625q0 1.921875 -1.015625 3.125q-1.015625 1.1875 -2.765625 1.1875q-0.765625 0 -1.515625 -0.328125q-0.734375 -0.328125 -1.15625 -0.984375l-0.03125 0l0 4.28125l-1.359375 0l0 -11.453125l1.359375 0l0 1.125l0.03125 0q0.3125 -0.640625 1.0 -0.96875q0.703125 -0.34375 1.640625 -0.34375zm-2.71875 4.328125q0 1.4375 0.6875 2.28125q0.703125 0.84375 1.921875 0.84375q1.171875 0 1.8125 -0.84375q0.65625 -0.84375 0.65625 -2.34375q0 -1.34375 -0.6875 -2.203125q-0.671875 -0.859375 -1.875 -0.859375q-1.203125 0 -1.859375 0.875q-0.65625 0.875 -0.65625 2.25z" fill-rule="nonzero"/><path fill="#000000" fill-opacity="0.0" d="m68.3937 46.8084l119.62205 0l0 58.17323l-119.62205 0z" fill-rule="evenodd"/><path fill="#000000" d="m109.16957 59.746525q2.59375 0 3.984375 1.375q1.40625 1.375 1.40625 4.062496q0 3.015625 -1.390625 4.5q-1.375 1.484375 -4.0 1.484375l-4.015625 0l0 -11.421871l4.015625 0zm0.09375 10.140621q1.703125 0 2.734375 -1.109375q1.046875 -1.125 1.046875 -3.390625q0 -2.2656212 -0.953125 -3.3124962q-0.9375 -1.046875 -2.78125 -1.046875l-2.640625 0l0 8.859371l2.59375 0zm10.375 -7.187496q1.78125 0 2.765625 1.28125q0.984375 1.2812462 0.984375 3.2968712l0 0.15625l-6.203125 0l0 0.109375q0 1.171875 0.6875 1.890625q0.6875 0.71875 1.890625 0.71875q0.90625 0 1.4375 -0.421875q0.546875 -0.421875 0.703125 -1.1875l1.34375 0q-0.265625 1.375 -1.203125 2.109375q-0.921875 0.71875 -2.328125 0.71875q-1.296875 0 -2.203125 -0.59375q-0.90625 -0.59375 -1.34375 -1.640625q-0.421875 -1.0625 -0.421875 -2.15625q0 -1.828125 1.09375 -3.0468712q1.109375 -1.234375 2.796875 -1.234375zm-2.453125 3.5312462l4.75 0q-0.0625 -1.0 -0.734375 -1.65625q-0.65625 -0.6718712 -1.65625 -0.6718712q-0.9375 0 -1.609375 0.6406212q-0.65625 0.625 -0.75 1.6875zm8.328125 -3.3437462l2.3125 6.906246l0.03125 0l2.265625 -6.906246l1.421875 0l-3.03125 8.281246l-1.453125 0l-3.0625 -8.281246l1.515625 0zm8.71875 -3.140625l0 1.65625l-1.359375 0l0 -1.65625l1.359375 0zm0 3.140625l0 8.281246l-1.359375 0l0 -8.281246l1.359375 0zm5.5703125 -0.1875q1.515625 0 2.453125 0.71875q0.953125 0.7187462 1.109375 2.1249962l-1.40625 0q-0.15625 -0.796875 -0.703125 -1.21875q-0.53125 -0.4218712 -1.34375 -0.4218712q-1.265625 0 -1.921875 0.8437462q-0.65625 0.84375 -0.65625 2.390625q0 1.375 0.640625 2.203125q0.65625 0.8125 1.78125 0.8125q0.984375 0 1.5625 -0.53125q0.578125 -0.53125 0.703125 -1.484375l1.390625 0q-0.21875 1.546875 -1.15625 2.390625q-0.9375 0.84375 -2.484375 0.84375q-1.8125 0 -2.84375 -1.140625q-1.03125 -1.140625 -1.03125 -3.09375q0 -2.03125 1.046875 -3.2343712q1.046875 -1.203125 2.859375 -1.203125zm8.578125 0q1.78125 0 2.765625 1.28125q0.984375 1.2812462 0.984375 3.2968712l0 0.15625l-6.203125 0l0 0.109375q0 1.171875 0.6875 1.890625q0.6875 0.71875 1.890625 0.71875q0.90625 0 1.4375 -0.421875q0.546875 -0.421875 0.703125 -1.1875l1.34375 0q-0.265625 1.375 -1.203125 2.109375q-0.921875 0.71875 -2.328125 0.71875q-1.296875 0 -2.203125 -0.59375q-0.90625 -0.59375 -1.34375 -1.640625q-0.421875 -1.0625 -0.421875 -2.15625q0 -1.828125 1.09375 -3.0468712q1.109375 -1.234375 2.796875 -1.234375zm-2.453125 3.5312462l4.75 0q-0.0625 -1.0 -0.734375 -1.65625q-0.65625 -0.6718712 -1.65625 -0.6718712q-0.9375 0 -1.609375 0.6406212q-0.65625 0.625 -0.75 1.6875z" fill-rule="nonzero"/><path fill="#000000" d="m123.02113 78.665276q1.671875 0 2.90625 0.78125q1.234375 0.765625 1.90625 2.15625q0.671875 1.390625 0.671875 3.046875q0 1.671875 -0.671875 3.0625q-0.671875 1.390625 -1.921875 2.171875q-1.234375 0.765625 -2.890625 0.765625q-1.640625 0 -2.890625 -0.765625q-1.234375 -0.78125 -1.90625 -2.15625q-0.671875 -1.390625 -0.671875 -3.078125q0 -2.59375 1.484375 -4.28125q1.5 -1.703125 3.984375 -1.703125zm-3.953125 5.984375q0 1.28125 0.46875 2.390625q0.46875 1.09375 1.359375 1.703125q0.90625 0.609375 2.125 0.609375q1.84375 0 2.890625 -1.3125q1.0625 -1.328125 1.0625 -3.390625q0 -2.03125 -1.046875 -3.359375q-1.046875 -1.34375 -2.921875 -1.34375q-1.828125 0 -2.890625 1.34375q-1.046875 1.34375 -1.046875 3.359375zm15.125 -5.984375q1.90625 0 3.015625 0.921875q1.125 0.921875 1.1875 2.703125l-1.4375 0q-0.125 -1.171875 -0.84375 -1.75q-0.703125 -0.59375 -1.984375 -0.59375q-1.21875 0 -1.890625 0.515625q-0.671875 0.5 -0.671875 1.4375q0 0.671875 0.5625 1.109375q0.578125 0.421875 3.109375 0.921875q1.828125 0.375 2.734375 1.15625q0.90625 0.765625 0.90625 2.140625q0 1.59375 -1.3125 2.515625q-1.296875 0.90625 -3.15625 0.90625q-2.078125 0 -3.390625 -1.046875q-1.3125 -1.046875 -1.328125 -3.0l1.4375 0q0.015625 1.3125 0.9375 2.03125q0.921875 0.71875 2.390625 0.71875q1.390625 0 2.140625 -0.53125q0.765625 -0.53125 0.765625 -1.546875q0 -0.8125 -0.703125 -1.296875q-0.6875 -0.5 -2.515625 -0.84375q-2.4375 -0.46875 -3.265625 -1.1875q-0.828125 -0.734375 -0.828125 -1.9375q0 -1.53125 1.15625 -2.4375q1.171875 -0.90625 2.984375 -0.90625z" fill-rule="nonzero"/><path fill="#f4cccc" d="m316.3746 10.8052845l131.93701 0l0 205.70079l-131.93701 0z" fill-rule="evenodd"/><path stroke="#434343" stroke-width="2.0" stroke-linejoin="round" stroke-linecap="butt" d="m316.3746 10.8052845l131.93701 0l0 205.70079l-131.93701 0z" fill-rule="evenodd"/><path fill="#c9daf8" d="m335.37985 117.01788l90.55118 0l0 82.74016l-90.55118 0z" fill-rule="evenodd"/><path stroke="#434343" stroke-width="2.0" stroke-linejoin="round" stroke-linecap="butt" d="m335.37985 117.01788l90.55118 0l0 82.74016l-90.55118 0z" fill-rule="evenodd"/><path fill="#000000" fill-opacity="0.0" d="m320.84442 135.12811l119.62204 0l0 58.173233l-119.62204 0z" fill-rule="evenodd"/><path fill="#000000" d="m345.03824 148.06624l3.609375 9.59375l3.609375 -9.59375l2.078125 0l0 11.421875l-1.4375 0l0 -9.515625l-0.03125 0l-3.5625 9.515625l-1.296875 0l-3.578125 -9.515625l-0.03125 0l0 9.515625l-1.4375 0l0 -11.421875l2.078125 0zm15.046875 2.953125q1.78125 0 2.765625 1.28125q0.984375 1.28125 0.984375 3.296875l0 0.15625l-6.203125 0l0 0.109375q0 1.171875 0.6875 1.890625q0.6875 0.71875 1.890625 0.71875q0.90625 0 1.4375 -0.421875q0.546875 -0.421875 0.703125 -1.1875l1.34375 0q-0.265625 1.375 -1.203125 2.109375q-0.921875 0.71875 -2.328125 0.71875q-1.296875 0 -2.203125 -0.59375q-0.90625 -0.59375 -1.34375 -1.640625q-0.421875 -1.0625 -0.421875 -2.15625q0 -1.828125 1.09375 -3.046875q1.109375 -1.234375 2.796875 -1.234375zm-2.453125 3.53125l4.75 0q-0.0625 -1.0 -0.734375 -1.65625q-0.65625 -0.671875 -1.65625 -0.671875q-0.9375 0 -1.609375 0.640625q-0.65625 0.625 -0.75 1.6875zm10.359375 -3.53125q1.671875 0 2.484375 0.65625q0.8125 0.640625 0.890625 1.9375l-1.359375 0l0 -0.015625q-0.0625 -0.65625 -0.578125 -1.015625q-0.515625 -0.359375 -1.34375 -0.359375q-0.8125 0 -1.296875 0.28125q-0.46875 0.265625 -0.46875 0.765625q0 0.453125 0.421875 0.75q0.421875 0.28125 1.265625 0.46875l1.28125 0.28125q1.203125 0.265625 1.828125 0.828125q0.625 0.546875 0.625 1.46875q0 1.21875 -0.953125 1.921875q-0.9375 0.703125 -2.578125 0.703125q-1.578125 0 -2.515625 -0.71875q-0.921875 -0.71875 -0.984375 -2.09375l1.359375 0q0.03125 0.765625 0.609375 1.1875q0.59375 0.40625 1.609375 0.40625q0.984375 0 1.484375 -0.3125q0.515625 -0.3125 0.515625 -0.921875q0 -0.546875 -0.5 -0.875q-0.5 -0.328125 -2.0625 -0.640625q-1.5625 -0.296875 -2.203125 -0.859375q-0.640625 -0.5625 -0.640625 -1.484375q0 -1.09375 0.875 -1.71875q0.890625 -0.640625 2.234375 -0.640625zm8.0 0q1.671875 0 2.484375 0.65625q0.8125 0.640625 0.890625 1.9375l-1.359375 0l0 -0.015625q-0.0625 -0.65625 -0.578125 -1.015625q-0.515625 -0.359375 -1.34375 -0.359375q-0.8125 0 -1.296875 0.28125q-0.46875 0.265625 -0.46875 0.765625q0 0.453125 0.421875 0.75q0.421875 0.28125 1.265625 0.46875l1.28125 0.28125q1.203125 0.265625 1.828125 0.828125q0.625 0.546875 0.625 1.46875q0 1.21875 -0.953125 1.921875q-0.9375 0.703125 -2.578125 0.703125q-1.578125 0 -2.515625 -0.71875q-0.921875 -0.71875 -0.984375 -2.09375l1.359375 0q0.03125 0.765625 0.609375 1.1875q0.59375 0.40625 1.609375 0.40625q0.984375 0 1.484375 -0.3125q0.515625 -0.3125 0.515625 -0.921875q0 -0.546875 -0.5 -0.875q-0.5 -0.328125 -2.0625 -0.640625q-1.5625 -0.296875 -2.203125 -0.859375q-0.640625 -0.5625 -0.640625 -1.484375q0 -1.09375 0.875 -1.71875q0.890625 -0.640625 2.234375 -0.640625zm8.625 0q1.6875 0 2.390625 0.609375q0.71875 0.59375 0.71875 1.609375q0 4.296875 0 4.765625q0 0.46875 0.421875 0.46875q0.09375 0 0.203125 -0.015625q0.109375 -0.03125 0.21875 -0.0625l0 1.0625q-0.1875 0.109375 -0.4375 0.171875q-0.25 0.0625 -0.53125 0.0625q-0.5625 0 -0.859375 -0.3125q-0.296875 -0.328125 -0.296875 -0.984375q-0.546875 0.640625 -1.28125 0.96875q-0.734375 0.328125 -1.640625 0.328125q-1.28125 0 -2.015625 -0.609375q-0.71875 -0.609375 -0.71875 -1.71875q0 -1.125 0.703125 -1.765625q0.71875 -0.65625 3.359375 -0.984375q0.890625 -0.125 1.203125 -0.34375q0.3125 -0.234375 0.3125 -0.6875q0 -0.6875 -0.4375 -1.015625q-0.4375 -0.34375 -1.40625 -0.34375q-1.0 0 -1.515625 0.390625q-0.5 0.375 -0.53125 1.171875l-1.359375 0q0.0625 -1.375 0.96875 -2.0625q0.90625 -0.703125 2.53125 -0.703125zm-2.390625 6.234375q0 0.578125 0.421875 0.90625q0.421875 0.3125 1.1875 0.3125q1.140625 0 1.828125 -0.5625q0.6875 -0.578125 0.6875 -1.28125l0 -1.421875q-0.34375 0.25 -0.890625 0.34375q-0.546875 0.078125 -1.453125 0.203125q-0.90625 0.125 -1.34375 0.484375q-0.4375 0.359375 -0.4375 1.015625zm10.96875 -6.234375q0.875 0 1.5 0.375q0.640625 0.375 0.984375 1.0l0.015625 0l0 -1.1875l1.265625 0l0 7.65625q0 1.953125 -0.9375 2.96875q-0.9375 1.015625 -2.890625 1.015625q-1.421875 0 -2.390625 -0.625q-0.96875 -0.625 -1.03125 -1.796875l1.359375 0q0.03125 0.625 0.671875 0.984375q0.640625 0.359375 1.46875 0.359375q1.203125 0 1.84375 -0.796875q0.640625 -0.796875 0.640625 -2.375l0 -0.515625l-0.03125 0q-0.328125 0.6875 -1.015625 1.09375q-0.6875 0.40625 -1.578125 0.40625q-1.671875 0 -2.6875 -1.15625q-1.0 -1.15625 -1.0 -3.03125q0 -1.90625 1.0 -3.140625q1.015625 -1.234375 2.8125 -1.234375zm-2.375 4.203125q0 1.484375 0.609375 2.328125q0.625 0.828125 1.734375 0.828125q1.125 0 1.78125 -0.859375q0.671875 -0.875 0.671875 -2.34375q0 -1.328125 -0.625 -2.140625q-0.609375 -0.8125 -1.734375 -0.8125q-1.140625 0 -1.796875 0.828125q-0.640625 0.8125 -0.640625 2.171875zm9.640625 -7.15625l0 1.65625l-1.359375 0l0 -1.65625l1.359375 0zm0 3.140625l0 8.28125l-1.359375 0l0 -8.28125l1.359375 0zm6.1171875 -0.1875q1.5 0 2.171875 0.765625q0.671875 0.765625 0.671875 2.1875l0 5.515625l-1.359375 0l0 -5.65625q0 -0.703125 -0.453125 -1.15625q-0.4375 -0.453125 -1.234375 -0.453125q-1.15625 0 -1.796875 0.703125q-0.640625 0.703125 -0.640625 1.828125l0 4.734375l-1.359375 0l0 -8.28125l1.28125 0l0 1.3125l0.03125 0q0.453125 -0.765625 1.109375 -1.125q0.65625 -0.375 1.578125 -0.375zm8.2578125 0q0.875 0 1.5 0.375q0.640625 0.375 0.984375 1.0l0.015625 0l0 -1.1875l1.265625 0l0 7.65625q0 1.953125 -0.9375 2.96875q-0.9375 1.015625 -2.890625 1.015625q-1.421875 0 -2.390625 -0.625q-0.96875 -0.625 -1.03125 -1.796875l1.359375 0q0.03125 0.625 0.671875 0.984375q0.640625 0.359375 1.46875 0.359375q1.203125 0 1.84375 -0.796875q0.640625 -0.796875 0.640625 -2.375l0 -0.515625l-0.03125 0q-0.328125 0.6875 -1.015625 1.09375q-0.6875 0.40625 -1.578125 0.40625q-1.671875 0 -2.6875 -1.15625q-1.0 -1.15625 -1.0 -3.03125q0 -1.90625 1.0 -3.140625q1.015625 -1.234375 2.8125 -1.234375zm-2.375 4.203125q0 1.484375 0.609375 2.328125q0.625 0.828125 1.734375 0.828125q1.125 0 1.78125 -0.859375q0.671875 -0.875 0.671875 -2.34375q0 -1.328125 -0.625 -2.140625q-0.609375 -0.8125 -1.734375 -0.8125q-1.140625 0 -1.796875 0.828125q-0.640625 0.8125 -0.640625 2.171875z" fill-rule="nonzero"/><path fill="#000000" d="m372.0187 167.26625l4.46875 11.421875l-1.6875 0l-1.234375 -3.4375l-4.84375 0l-1.28125 3.4375l-1.5625 0l4.46875 -11.421875l1.671875 0zm-0.875 1.375l-1.9375 5.328125l3.875 0l-1.90625 -5.328125l-0.03125 0zm10.3203125 1.578125q1.765625 0 2.78125 1.21875q1.03125 1.21875 1.03125 3.140625q0 1.921875 -1.015625 3.125q-1.015625 1.1875 -2.765625 1.1875q-0.765625 0 -1.515625 -0.328125q-0.734375 -0.328125 -1.15625 -0.984375l-0.03125 0l0 4.28125l-1.359375 0l0 -11.453125l1.359375 0l0 1.125l0.03125 0q0.3125 -0.640625 1.0 -0.96875q0.703125 -0.34375 1.640625 -0.34375zm-2.71875 4.328125q0 1.4375 0.6875 2.28125q0.703125 0.84375 1.921875 0.84375q1.171875 0 1.8125 -0.84375q0.65625 -0.84375 0.65625 -2.34375q0 -1.34375 -0.6875 -2.203125q-0.671875 -0.859375 -1.875 -0.859375q-1.203125 0 -1.859375 0.875q-0.65625 0.875 -0.65625 2.25zm12.203125 -4.328125q1.765625 0 2.78125 1.21875q1.03125 1.21875 1.03125 3.140625q0 1.921875 -1.015625 3.125q-1.015625 1.1875 -2.765625 1.1875q-0.765625 0 -1.515625 -0.328125q-0.734375 -0.328125 -1.15625 -0.984375l-0.03125 0l0 4.28125l-1.359375 0l0 -11.453125l1.359375 0l0 1.125l0.03125 0q0.3125 -0.640625 1.0 -0.96875q0.703125 -0.34375 1.640625 -0.34375zm-2.71875 4.328125q0 1.4375 0.6875 2.28125q0.703125 0.84375 1.921875 0.84375q1.171875 0 1.8125 -0.84375q0.65625 -0.84375 0.65625 -2.34375q0 -1.34375 -0.6875 -2.203125q-0.671875 -0.859375 -1.875 -0.859375q-1.203125 0 -1.859375 0.875q-0.65625 0.875 -0.65625 2.25z" fill-rule="nonzero"/><path fill="#000000" fill-opacity="0.0" d="m322.53207 47.154366l119.62204 0l0 58.173225l-119.62204 0z" fill-rule="evenodd"/><path fill="#000000" d="m363.30795 60.09249q2.59375 0 3.984375 1.375q1.40625 1.375 1.40625 4.0625q0 3.015625 -1.390625 4.5q-1.375 1.484375 -4.0 1.484375l-4.015625 0l0 -11.421875l4.015625 0zm0.09375 10.140625q1.703125 0 2.734375 -1.109375q1.046875 -1.125 1.046875 -3.390625q0 -2.265625 -0.953125 -3.3125q-0.9375 -1.046875 -2.78125 -1.046875l-2.640625 0l0 8.859375l2.59375 0zm10.375 -7.1875q1.78125 0 2.765625 1.28125q0.984375 1.28125 0.984375 3.296875l0 0.15625l-6.203125 0l0 0.109375q0 1.171875 0.6875 1.890625q0.6875 0.71875 1.890625 0.71875q0.90625 0 1.4375 -0.421875q0.546875 -0.421875 0.703125 -1.1875l1.34375 0q-0.265625 1.375 -1.203125 2.109375q-0.921875 0.71875 -2.328125 0.71875q-1.296875 0 -2.203125 -0.59375q-0.90625 -0.59375 -1.34375 -1.640625q-0.421875 -1.0625 -0.421875 -2.15625q0 -1.828125 1.09375 -3.046875q1.109375 -1.234375 2.796875 -1.234375zm-2.453125 3.53125l4.75 0q-0.0625 -1.0 -0.734375 -1.65625q-0.65625 -0.671875 -1.65625 -0.671875q-0.9375 0 -1.609375 0.640625q-0.65625 0.625 -0.75 1.6875zm8.328125 -3.34375l2.3125 6.90625l0.03125 0l2.265625 -6.90625l1.421875 0l-3.03125 8.28125l-1.453125 0l-3.0625 -8.28125l1.515625 0zm8.71875 -3.140625l0 1.65625l-1.359375 0l0 -1.65625l1.359375 0zm0 3.140625l0 8.28125l-1.359375 0l0 -8.28125l1.359375 0zm5.5703125 -0.1875q1.515625 0 2.453125 0.71875q0.953125 0.71875 1.109375 2.125l-1.40625 0q-0.15625 -0.796875 -0.703125 -1.21875q-0.53125 -0.421875 -1.34375 -0.421875q-1.265625 0 -1.921875 0.84375q-0.65625 0.84375 -0.65625 2.390625q0 1.375 0.640625 2.203125q0.65625 0.8125 1.78125 0.8125q0.984375 0 1.5625 -0.53125q0.578125 -0.53125 0.703125 -1.484375l1.390625 0q-0.21875 1.546875 -1.15625 2.390625q-0.9375 0.84375 -2.484375 0.84375q-1.8125 0 -2.84375 -1.140625q-1.03125 -1.140625 -1.03125 -3.09375q0 -2.03125 1.046875 -3.234375q1.046875 -1.203125 2.859375 -1.203125zm8.578125 0q1.78125 0 2.765625 1.28125q0.984375 1.28125 0.984375 3.296875l0 0.15625l-6.203125 0l0 0.109375q0 1.171875 0.6875 1.890625q0.6875 0.71875 1.890625 0.71875q0.90625 0 1.4375 -0.421875q0.546875 -0.421875 0.703125 -1.1875l1.34375 0q-0.265625 1.375 -1.203125 2.109375q-0.921875 0.71875 -2.328125 0.71875q-1.296875 0 -2.203125 -0.59375q-0.90625 -0.59375 -1.34375 -1.640625q-0.421875 -1.0625 -0.421875 -2.15625q0 -1.828125 1.09375 -3.046875q1.109375 -1.234375 2.796875 -1.234375zm-2.453125 3.53125l4.75 0q-0.0625 -1.0 -0.734375 -1.65625q-0.65625 -0.671875 -1.65625 -0.671875q-0.9375 0 -1.609375 0.640625q-0.65625 0.625 -0.75 1.6875z" fill-rule="nonzero"/><path fill="#000000" d="m377.15952 79.011246q1.671875 0 2.90625 0.78125q1.234375 0.765625 1.90625 2.15625q0.671875 1.390625 0.671875 3.046875q0 1.671875 -0.671875 3.0625q-0.671875 1.390625 -1.921875 2.171875q-1.234375 0.765625 -2.890625 0.765625q-1.640625 0 -2.890625 -0.765625q-1.234375 -0.78125 -1.90625 -2.15625q-0.671875 -1.390625 -0.671875 -3.078125q0 -2.59375 1.484375 -4.28125q1.5 -1.703125 3.984375 -1.703125zm-3.953125 5.984375q0 1.28125 0.46875 2.390625q0.46875 1.09375 1.359375 1.703125q0.90625 0.609375 2.125 0.609375q1.84375 0 2.890625 -1.3125q1.0625 -1.328125 1.0625 -3.390625q0 -2.03125 -1.046875 -3.359375q-1.046875 -1.34375 -2.921875 -1.34375q-1.828125 0 -2.890625 1.34375q-1.046875 1.34375 -1.046875 3.359375zm15.125 -5.984375q1.90625 0 3.015625 0.921875q1.125 0.921875 1.1875 2.703125l-1.4375 0q-0.125 -1.171875 -0.84375 -1.75q-0.703125 -0.59375 -1.984375 -0.59375q-1.21875 0 -1.890625 0.515625q-0.671875 0.5 -0.671875 1.4375q0 0.671875 0.5625 1.109375q0.578125 0.421875 3.109375 0.921875q1.828125 0.375 2.734375 1.15625q0.90625 0.765625 0.90625 2.140625q0 1.59375 -1.3125 2.515625q-1.296875 0.90625 -3.15625 0.90625q-2.078125 0 -3.390625 -1.046875q-1.3125 -1.046875 -1.328125 -3.0l1.4375 0q0.015625 1.3125 0.9375 2.03125q0.921875 0.71875 2.390625 0.71875q1.390625 0 2.140625 -0.53125q0.765625 -0.53125 0.765625 -1.546875q0 -0.8125 -0.703125 -1.296875q-0.6875 -0.5 -2.515625 -0.84375q-2.4375 -0.46875 -3.265625 -1.1875q-0.828125 -0.734375 -0.828125 -1.9375q0 -1.53125 1.15625 -2.4375q1.171875 -0.90625 2.984375 -0.90625z" fill-rule="nonzero"/><path fill="#000000" fill-opacity="0.0" d="m126.51706 134.78215l254.14172 0.34646606" fill-rule="evenodd"/><path stroke="#000000" stroke-width="1.0" stroke-linejoin="round" stroke-linecap="butt" d="m132.51704 134.79033l242.14174 0.33009338" fill-rule="evenodd"/><path fill="#000000" stroke="#000000" stroke-width="1.0" stroke-linecap="butt" d="m132.5193 133.1386l-4.540344 1.6455536l4.535843 1.6579132z" fill-rule="evenodd"/><path fill="#000000" stroke="#000000" stroke-width="1.0" stroke-linecap="butt" d="m374.65656 136.77216l4.540344 -1.6455383l-4.535858 -1.6579132z" fill-rule="evenodd"/><path fill="#000000" fill-opacity="0.0" d="m-6.8005247 62.965878l71.55905 0l0 42.01575l-71.55905 0z" fill-rule="evenodd"/><path fill="#000000" d="m15.800834 76.57338l5.203124 13.3125l-1.953125 0l-1.453125 -4.015625l-5.640624 0l-1.5 4.015625l-1.8125 0l5.203125 -13.3125l1.953125 0zm-1.03125 1.59375l-2.25 6.21875l4.515624 0l-2.218749 -6.21875l-0.046875 0zm8.963302 -1.59375l0 13.3125l-1.59375 0l0 -13.3125l1.59375 0zm4.1448193 0l0 1.9375l-1.59375 0l0 -1.9375l1.59375 0zm0 3.671875l0 9.640625l-1.59375 0l0 -9.640625l1.59375 0zm6.488571 -0.21875q1.765625 0 2.859375 0.84375q1.109375 0.828125 1.296875 2.46875l-1.625 0q-0.203125 -0.9375 -0.828125 -1.421875q-0.625 -0.5 -1.5625 -0.5q-1.484375 0 -2.25 0.984375q-0.765625 0.984375 -0.765625 2.78125q0 1.609375 0.75 2.578125q0.765625 0.953125 2.078125 0.953125q1.15625 0 1.8125 -0.625q0.671875 -0.625 0.828125 -1.734375l1.625 0q-0.265625 1.8125 -1.359375 2.796875q-1.09375 0.96875 -2.890625 0.96875q-2.109375 0 -3.3125 -1.328125q-1.203125 -1.328125 -1.203125 -3.609375q0 -2.359375 1.21875 -3.75q1.21875 -1.40625 3.328125 -1.40625zm10.004822 0q2.078125 0 3.21875 1.5q1.15625 1.484375 1.15625 3.828125l0 0.1875l-7.234375 0l0 0.109375q0 1.390625 0.796875 2.234375q0.8125 0.828125 2.21875 0.828125q1.046875 0 1.671875 -0.484375q0.625 -0.5 0.828125 -1.40625l1.5625 0q-0.328125 1.609375 -1.40625 2.453125q-1.078125 0.84375 -2.71875 0.84375q-1.515625 0 -2.578125 -0.6875q-1.046875 -0.6875 -1.546875 -1.90625q-0.5 -1.234375 -0.5 -2.515625q0 -2.140625 1.28125 -3.5625q1.296875 -1.421875 3.25 -1.421875zm-2.859375 4.109375l5.546875 0q-0.078125 -1.171875 -0.859375 -1.9375q-0.765625 -0.78125 -1.9375 -0.78125q-1.09375 0 -1.875 0.734375q-0.765625 0.734375 -0.875 1.984375z" fill-rule="nonzero"/><path fill="#000000" fill-opacity="0.0" d="m448.31235 62.965878l71.55905 0l0 42.01575l-71.55905 0z" fill-rule="evenodd"/><path fill="#000000" d="m473.95633 76.57338q2.46875 0 3.34375 1.0q0.890625 0.984375 0.890625 2.25q0 1.0625 -0.515625 1.84375q-0.515625 0.765625 -1.453125 1.15625l0 0.03125q1.21875 0.265625 1.875 1.125q0.65625 0.84375 0.65625 2.078125q0 1.625 -1.140625 2.734375q-1.125 1.09375 -2.828125 1.09375l-6.515625 0l0 -13.3125l5.6875 0zm-0.28125 5.71875q1.328125 0 2.03125 -0.5q0.71875 -0.5 0.71875 -1.625q0 -1.0625 -0.59375 -1.578125q-0.59375 -0.53125 -2.140625 -0.53125l-3.65625 0l0 4.234375l3.640625 0zm0.875 6.09375q1.078125 0 1.75 -0.640625q0.6875 -0.640625 0.6875 -1.734375q0 -1.125 -0.765625 -1.671875q-0.765625 -0.5625 -2.203125 -0.5625l-3.984375 0l0 4.609375l4.515625 0zm10.405609 -8.359375q2.1875 0 3.421875 1.40625q1.25 1.40625 1.25 3.640625q0 2.25 -1.28125 3.65625q-1.265625 1.390625 -3.390625 1.390625q-2.09375 0 -3.390625 -1.375q-1.296875 -1.375 -1.296875 -3.671875q0 -2.296875 1.265625 -3.671875q1.265625 -1.375 3.421875 -1.375zm-3.015625 5.046875q0 1.65625 0.84375 2.65625q0.859375 0.984375 2.171875 0.984375q1.296875 0 2.140625 -0.984375q0.859375 -1.0 0.859375 -2.65625q0 -1.640625 -0.84375 -2.640625q-0.84375 -1.015625 -2.171875 -1.015625q-1.28125 0 -2.140625 0.984375q-0.859375 0.984375 -0.859375 2.671875zm11.197144 -8.5l0 4.984375l0.046875 0q0.375 -0.75 1.171875 -1.140625q0.796875 -0.390625 1.90625 -0.390625q2.0625 0 3.25 1.421875q1.1875 1.421875 1.1875 3.640625q0 2.25 -1.1875 3.640625q-1.171875 1.390625 -3.203125 1.390625q-0.90625 0 -1.765625 -0.375q-0.859375 -0.375 -1.359375 -1.140625l-0.046875 0l0 1.28125l-1.578125 0l0 -13.3125l1.578125 0zm-0.046875 8.484375q0 1.671875 0.8125 2.671875q0.8125 0.984375 2.234375 0.984375q1.375 0 2.125 -0.984375q0.75 -0.984375 0.75 -2.75q0 -1.546875 -0.796875 -2.546875q-0.796875 -1.015625 -2.1875 -1.015625q-1.40625 0 -2.171875 1.015625q-0.765625 1.015625 -0.765625 2.625z" fill-rule="nonzero"/><path fill="#000000" fill-opacity="0.0" d="m90.73753 237.00787l90.55118 0l0 64.62991l-90.55118 0z" fill-rule="evenodd"/><path fill="#000000" d="m116.025856 250.61537l5.203125 13.312515l-1.953125 0l-1.453125 -4.015625l-5.640625 0l-1.5 4.015625l-1.8125 0l5.203125 -13.312515l1.953125 0zm-1.03125 1.59375l-2.25 6.2187653l4.515625 0l-2.21875 -6.2187653l-0.046875 0zm8.963303 -1.59375l0 13.312515l-1.59375 0l0 -13.312515l1.59375 0zm4.1448135 0l0 1.9375l-1.5937424 0l0 -1.9375l1.5937424 0zm0 3.671875l0 9.64064l-1.5937424 0l0 -9.64064l1.5937424 0zm6.488571 -0.21875q1.765625 0 2.859375 0.84375q1.109375 0.828125 1.296875 2.4687653l-1.625 0q-0.203125 -0.9375 -0.828125 -1.4218903q-0.625 -0.5 -1.5625 -0.5q-1.484375 0 -2.25 0.98439026q-0.765625 0.984375 -0.765625 2.78125q0 1.609375 0.75 2.578125q0.765625 0.953125 2.078125 0.953125q1.15625 0 1.8125 -0.625q0.671875 -0.625 0.828125 -1.734375l1.625 0q-0.265625 1.8125 -1.359375 2.796875q-1.09375 0.96875 -2.890625 0.96875q-2.109375 0 -3.3125 -1.328125q-1.203125 -1.328125 -1.203125 -3.609375q0 -2.359375 1.21875 -3.7500153q1.21875 -1.40625 3.328125 -1.40625zm10.004822 0q2.078125 0 3.21875 1.5q1.15625 1.4843903 1.15625 3.8281403l0 0.1875l-7.234375 0l0 0.109375q0 1.390625 0.796875 2.234375q0.8125 0.828125 2.21875 0.828125q1.046875 0 1.671875 -0.484375q0.625 -0.5 0.828125 -1.40625l1.5625 0q-0.328125 1.609375 -1.40625 2.453125q-1.078125 0.84375 -2.71875 0.84375q-1.515625 0 -2.578125 -0.6875q-1.046875 -0.6875 -1.546875 -1.90625q-0.5 -1.234375 -0.5 -2.515625q0 -2.140625 1.28125 -3.5625153q1.296875 -1.421875 3.25 -1.421875zm-2.859375 4.1093903l5.546875 0q-0.078125 -1.171875 -0.859375 -1.9375q-0.765625 -0.78126526 -1.9375 -0.78126526q-1.09375 0 -1.875 0.73439026q-0.765625 0.734375 -0.875 1.984375zm11.286072 -7.5625153l0 2.140625q0 1.125 -0.53125 1.890625q-0.515625 0.765625 -1.515625 0.765625l0 -0.921875q0.53125 0 0.796875 -0.46875q0.28125 -0.46875 0.296875 -1.34375l-1.109375 0l0 -2.0625l2.0625 0zm5.0869446 3.453125q1.9375 0 2.890625 0.75q0.953125 0.75 1.03125 2.2656403l-1.578125 0l0 -0.03125q-0.0625 -0.765625 -0.671875 -1.1718903q-0.609375 -0.421875 -1.5625 -0.421875q-0.953125 0 -1.515625 0.328125q-0.546875 0.31251526 -0.546875 0.90626526q0 0.515625 0.484375 0.859375q0.5 0.328125 1.484375 0.546875l1.484375 0.328125q1.40625 0.3125 2.125 0.953125q0.734375 0.640625 0.734375 1.734375q0 1.421875 -1.109375 2.234375q-1.09375 0.8125 -2.984375 0.8125q-1.859375 0 -2.953125 -0.828125q-1.078125 -0.84375 -1.140625 -2.453125l1.59375 0q0.03125 0.90625 0.703125 1.390625q0.6875 0.484375 1.875 0.484375q1.15625 0 1.75 -0.359375q0.59375 -0.375 0.59375 -1.078125q0 -0.65625 -0.59375 -1.03125q-0.59375 -0.375 -2.40625 -0.734375q-1.828125 -0.359375 -2.578125 -1.015625q-0.734375 -0.65625 -0.734375 -1.734375q0 -1.2656403 1.03125 -2.0000153q1.03125 -0.734375 2.59375 -0.734375z" fill-rule="nonzero"/><path fill="#000000" d="m118.529015 273.01538l0 13.3125l-1.59375 0l0 -1.296875l-0.03125 0q-0.375 0.734375 -1.1875 1.140625q-0.8125 0.390625 -1.890625 0.390625q-2.015625 0 -3.234375 -1.40625q-1.203125 -1.40625 -1.203125 -3.671875q0 -2.234375 1.171875 -3.625q1.171875 -1.390625 3.21875 -1.390625q0.953125 0 1.796875 0.390625q0.859375 0.375 1.328125 1.109375l0.03125 0l0 -4.953125l1.59375 0zm-7.46875 8.5625q0 1.5625 0.8125 2.578125q0.8125 1.0 2.1875 1.0q1.390625 0 2.15625 -1.0q0.78125 -1.015625 0.78125 -2.640625q0 -1.640625 -0.796875 -2.640625q-0.78125 -1.015625 -2.265625 -1.015625q-1.359375 0 -2.125 1.0q-0.75 0.984375 -0.75 2.71875zm13.918304 -5.109375q2.078125 0 3.2187424 1.5q1.15625 1.484375 1.15625 3.828125l0 0.1875l-7.2343674 0l0 0.109375q0 1.390625 0.796875 2.234375q0.8125 0.828125 2.21875 0.828125q1.046875 0 1.671875 -0.484375q0.625 -0.5 0.828125 -1.40625l1.5624924 0q-0.328125 1.609375 -1.4062424 2.453125q-1.078125 0.84375 -2.71875 0.84375q-1.515625 0 -2.578125 -0.6875q-1.046875 -0.6875 -1.546875 -1.90625q-0.5 -1.234375 -0.5 -2.515625q0 -2.140625 1.28125 -3.5625q1.296875 -1.421875 3.25 -1.421875zm-2.859375 4.109375l5.546875 0q-0.078125 -1.171875 -0.859375 -1.9375q-0.765625 -0.78125 -1.9375 -0.78125q-1.09375 0 -1.875 0.734375q-0.765625 0.734375 -0.875 1.984375zm9.707939 -3.890625l2.703125 8.03125l0.03125 0l2.640625 -8.03125l1.65625 0l-3.53125 9.640625l-1.6875 0l-3.578125 -9.640625l1.765625 0zm10.171875 -3.671875l0 1.9375l-1.59375 0l0 -1.9375l1.59375 0zm0 3.671875l0 9.640625l-1.59375 0l0 -9.640625l1.59375 0zm6.488571 -0.21875q1.765625 0 2.859375 0.84375q1.109375 0.828125 1.296875 2.46875l-1.625 0q-0.203125 -0.9375 -0.828125 -1.421875q-0.625 -0.5 -1.5625 -0.5q-1.484375 0 -2.25 0.984375q-0.765625 0.984375 -0.765625 2.78125q0 1.609375 0.75 2.578125q0.765625 0.953125 2.078125 0.953125q1.15625 0 1.8125 -0.625q0.671875 -0.625 0.828125 -1.734375l1.625 0q-0.265625 1.8125 -1.359375 2.796875q-1.09375 0.96875 -2.890625 0.96875q-2.109375 0 -3.3125 -1.328125q-1.203125 -1.328125 -1.203125 -3.609375q0 -2.359375 1.21875 -3.75q1.21875 -1.40625 3.328125 -1.40625zm10.004822 0q2.078125 0 3.21875 1.5q1.15625 1.484375 1.15625 3.828125l0 0.1875l-7.234375 0l0 0.109375q0 1.390625 0.796875 2.234375q0.8125 0.828125 2.21875 0.828125q1.046875 0 1.671875 -0.484375q0.625 -0.5 0.828125 -1.40625l1.5625 0q-0.328125 1.609375 -1.40625 2.453125q-1.078125 0.84375 -2.71875 0.84375q-1.515625 0 -2.578125 -0.6875q-1.046875 -0.6875 -1.546875 -1.90625q-0.5 -1.234375 -0.5 -2.515625q0 -2.140625 1.28125 -3.5625q1.296875 -1.421875 3.25 -1.421875zm-2.859375 4.109375l5.546875 0q-0.078125 -1.171875 -0.859375 -1.9375q-0.765625 -0.78125 -1.9375 -0.78125q-1.09375 0 -1.875 0.734375q-0.765625 0.734375 -0.875 1.984375z" fill-rule="nonzero"/><path fill="#000000" fill-opacity="0.0" d="m335.38058 237.00787l90.55118 0l0 64.62991l-90.55118 0z" fill-rule="evenodd"/><path fill="#000000" d="m363.71155 250.61537q2.46875 0 3.34375 1.0q0.890625 0.984375 0.890625 2.25q0 1.0625 -0.515625 1.84375q-0.515625 0.76564026 -1.453125 1.1562653l0 0.03125q1.21875 0.265625 1.875 1.125q0.65625 0.84375 0.65625 2.078125q0 1.625 -1.140625 2.734375q-1.125 1.09375 -2.828125 1.09375l-6.515625 0l0 -13.312515l5.6875 0zm-0.28125 5.7187653q1.328125 0 2.03125 -0.50001526q0.71875 -0.5 0.71875 -1.625q0 -1.0625 -0.59375 -1.578125q-0.59375 -0.53125 -2.140625 -0.53125l-3.65625 0l0 4.2343903l3.640625 0zm0.875 6.09375q1.078125 0 1.75 -0.640625q0.6875 -0.640625 0.6875 -1.734375q0 -1.125 -0.765625 -1.671875q-0.765625 -0.5625 -2.203125 -0.5625l-3.984375 0l0 4.609375l4.515625 0zm10.405609 -8.35939q2.1875 0 3.421875 1.40625q1.25 1.4062653 1.25 3.6406403q0 2.25 -1.28125 3.65625q-1.265625 1.390625 -3.390625 1.390625q-2.09375 0 -3.390625 -1.375q-1.296875 -1.375 -1.296875 -3.671875q0 -2.296875 1.265625 -3.6718903q1.265625 -1.375 3.421875 -1.375zm-3.015625 5.0468903q0 1.65625 0.84375 2.65625q0.859375 0.984375 2.171875 0.984375q1.296875 0 2.140625 -0.984375q0.859375 -1.0 0.859375 -2.65625q0 -1.640625 -0.84375 -2.640625q-0.84375 -1.0156403 -2.171875 -1.0156403q-1.28125 0 -2.140625 0.98439026q-0.859375 0.984375 -0.859375 2.671875zm11.197144 -8.500015l0 4.984375l0.046875 0q0.375 -0.75 1.171875 -1.140625q0.796875 -0.390625 1.90625 -0.390625q2.0625 0 3.25 1.421875q1.1875 1.4218903 1.1875 3.6406403q0 2.25 -1.1875 3.640625q-1.171875 1.390625 -3.203125 1.390625q-0.90625 0 -1.765625 -0.375q-0.859375 -0.375 -1.359375 -1.140625l-0.046875 0l0 1.28125l-1.578125 0l0 -13.312515l1.578125 0zm-0.046875 8.48439q0 1.671875 0.8125 2.671875q0.8125 0.984375 2.234375 0.984375q1.375 0 2.125 -0.984375q0.75 -0.984375 0.75 -2.75q0 -1.546875 -0.796875 -2.546875q-0.796875 -1.0156403 -2.1875 -1.0156403q-1.40625 0 -2.171875 1.0156403q-0.765625 1.015625 -0.765625 2.625zm11.887054 -8.48439l0 2.140625q0 1.125 -0.53125 1.890625q-0.515625 0.765625 -1.515625 0.765625l0 -0.921875q0.53125 0 0.796875 -0.46875q0.28125 -0.46875 0.296875 -1.34375l-1.109375 0l0 -2.0625l2.0625 0zm5.0869446 3.453125q1.9375 0 2.890625 0.75q0.953125 0.75 1.03125 2.2656403l-1.578125 0l0 -0.03125q-0.0625 -0.765625 -0.671875 -1.1718903q-0.609375 -0.421875 -1.5625 -0.421875q-0.953125 0 -1.515625 0.328125q-0.546875 0.31251526 -0.546875 0.90626526q0 0.515625 0.484375 0.859375q0.5 0.328125 1.484375 0.546875l1.484375 0.328125q1.40625 0.3125 2.125 0.953125q0.734375 0.640625 0.734375 1.734375q0 1.421875 -1.109375 2.234375q-1.09375 0.8125 -2.984375 0.8125q-1.859375 0 -2.953125 -0.828125q-1.078125 -0.84375 -1.140625 -2.453125l1.59375 0q0.03125 0.90625 0.703125 1.390625q0.6875 0.484375 1.875 0.484375q1.15625 0 1.75 -0.359375q0.59375 -0.375 0.59375 -1.078125q0 -0.65625 -0.59375 -1.03125q-0.59375 -0.375 -2.40625 -0.734375q-1.828125 -0.359375 -2.578125 -1.015625q-0.734375 -0.65625 -0.734375 -1.734375q0 -1.2656403 1.03125 -2.0000153q1.03125 -0.734375 2.59375 -0.734375z" fill-rule="nonzero"/><path fill="#000000" d="m363.17206 273.01538l0 13.3125l-1.59375 0l0 -1.296875l-0.03125 0q-0.375 0.734375 -1.1875 1.140625q-0.8125 0.390625 -1.890625 0.390625q-2.015625 0 -3.234375 -1.40625q-1.203125 -1.40625 -1.203125 -3.671875q0 -2.234375 1.171875 -3.625q1.171875 -1.390625 3.21875 -1.390625q0.953125 0 1.796875 0.390625q0.859375 0.375 1.328125 1.109375l0.03125 0l0 -4.953125l1.59375 0zm-7.46875 8.5625q0 1.5625 0.8125 2.578125q0.8125 1.0 2.1875 1.0q1.390625 0 2.15625 -1.0q0.78125 -1.015625 0.78125 -2.640625q0 -1.640625 -0.796875 -2.640625q-0.78125 -1.015625 -2.265625 -1.015625q-1.359375 0 -2.125 1.0q-0.75 0.984375 -0.75 2.71875zm13.918304 -5.109375q2.078125 0 3.21875 1.5q1.15625 1.484375 1.15625 3.828125l0 0.1875l-7.234375 0l0 0.109375q0 1.390625 0.796875 2.234375q0.8125 0.828125 2.21875 0.828125q1.046875 0 1.671875 -0.484375q0.625 -0.5 0.828125 -1.40625l1.5625 0q-0.328125 1.609375 -1.40625 2.453125q-1.078125 0.84375 -2.71875 0.84375q-1.515625 0 -2.578125 -0.6875q-1.046875 -0.6875 -1.546875 -1.90625q-0.5 -1.234375 -0.5 -2.515625q0 -2.140625 1.28125 -3.5625q1.296875 -1.421875 3.25 -1.421875zm-2.859375 4.109375l5.546875 0q-0.078125 -1.171875 -0.859375 -1.9375q-0.765625 -0.78125 -1.9375 -0.78125q-1.09375 0 -1.875 0.734375q-0.765625 0.734375 -0.875 1.984375zm9.707947 -3.890625l2.703125 8.03125l0.03125 0l2.640625 -8.03125l1.65625 0l-3.53125 9.640625l-1.6875 0l-3.578125 -9.640625l1.765625 0zm10.171875 -3.671875l0 1.9375l-1.59375 0l0 -1.9375l1.59375 0zm0 3.671875l0 9.640625l-1.59375 0l0 -9.640625l1.59375 0zm6.4885864 -0.21875q1.765625 0 2.859375 0.84375q1.109375 0.828125 1.296875 2.46875l-1.625 0q-0.203125 -0.9375 -0.828125 -1.421875q-0.625 -0.5 -1.5625 -0.5q-1.484375 0 -2.25 0.984375q-0.765625 0.984375 -0.765625 2.78125q0 1.609375 0.75 2.578125q0.765625 0.953125 2.078125 0.953125q1.15625 0 1.8125 -0.625q0.671875 -0.625 0.828125 -1.734375l1.625 0q-0.265625 1.8125 -1.359375 2.796875q-1.09375 0.96875 -2.890625 0.96875q-2.109375 0 -3.3125 -1.328125q-1.203125 -1.328125 -1.203125 -3.609375q0 -2.359375 1.21875 -3.75q1.21875 -1.40625 3.328125 -1.40625zm10.004822 0q2.078125 0 3.21875 1.5q1.15625 1.484375 1.15625 3.828125l0 0.1875l-7.234375 0l0 0.109375q0 1.390625 0.796875 2.234375q0.8125 0.828125 2.21875 0.828125q1.046875 0 1.671875 -0.484375q0.625 -0.5 0.828125 -1.40625l1.5625 0q-0.328125 1.609375 -1.40625 2.453125q-1.078125 0.84375 -2.71875 0.84375q-1.515625 0 -2.578125 -0.6875q-1.046875 -0.6875 -1.546875 -1.90625q-0.5 -1.234375 -0.5 -2.515625q0 -2.140625 1.28125 -3.5625q1.296875 -1.421875 3.25 -1.421875zm-2.859375 4.109375l5.546875 0q-0.078125 -1.171875 -0.859375 -1.9375q-0.765625 -0.78125 -1.9375 -0.78125q-1.09375 0 -1.875 0.734375q-0.765625 0.734375 -0.875 1.984375z" fill-rule="nonzero"/></g></svg>